<svg xmlns="http://www.w3.org/2000/svg" viewBox="0 0 500 500"><g id="freepik--background-complete--inject-64"><polygon points="202.34 47.51 202.34 157.31 60.53 157.31 55.42 48.28 202.34 47.51" style="fill:#e0e0e0"></polygon><rect x="71.74" y="31.82" width="109.16" height="141.82" transform="translate(23.59 229.06) rotate(-90)" style="fill:#f5f5f5"></rect><path d="M197.78,157.86H54.88V47.61h142.9ZM56,156.77H196.69V48.69H56Z" style="fill:#e0e0e0"></path><rect x="70.78" y="59.37" width="111.1" height="83.58" style="fill:#fff"></rect><path d="M181.88,59.37h-.54l-1.57,0-6.05,0-22.78.07-80.16.12.25-.25c0,25.07,0,53.52,0,83.57h0l-.28-.28,111.1.05-.24.23c.05-25.25.1-46.12.12-60.68,0-7.29.05-13,.06-16.9,0-1.94,0-3.43,0-4.45s0-1.54,0-1.54,0,.5,0,1.49,0,2.49,0,4.41c0,3.89,0,9.58.06,16.84,0,14.6.07,35.52.12,60.83v.24h-.23l-111.1,0h-.29v-.29h0c0-30,0-58.5,0-83.57v-.26h.26l80.32.12,22.73.07,6,0h1.54Z" style="fill:#e0e0e0"></path><path d="M55.42,47.9a13.38,13.38,0,0,1,2.4,1.47c1.44,1,3.4,2.34,5.53,3.92s4,3.06,5.35,4.17a13.77,13.77,0,0,1,2.08,1.91,14.74,14.74,0,0,1-2.32-1.59l-5.44-4-5.44-4.05A13.76,13.76,0,0,1,55.42,47.9Z" style="fill:#e0e0e0"></path><path d="M197.24,48.15A80.91,80.91,0,0,1,189.72,54a79.33,79.33,0,0,1-7.84,5.38,78.3,78.3,0,0,1,7.51-5.84A79.45,79.45,0,0,1,197.24,48.15Z" style="fill:#e0e0e0"></path><line x1="197.24" y1="157.31" x2="181.31" y2="142.94" style="fill:#fff"></line><path d="M181.31,142.94a101.25,101.25,0,0,1,8.15,7,105.93,105.93,0,0,1,7.78,7.39,98.41,98.41,0,0,1-8.16-7A103.24,103.24,0,0,1,181.31,142.94Z" style="fill:#e0e0e0"></path><path d="M55.42,157.31a92.69,92.69,0,0,1,7.41-7.07,95.35,95.35,0,0,1,7.79-6.65,92.69,92.69,0,0,1-7.41,7.07A93,93,0,0,1,55.42,157.31Z" style="fill:#e0e0e0"></path><path d="M152.05,74.78c0,.16-11,.29-24.55.29S103,74.94,103,74.78s11-.29,24.55-.29S152.05,74.62,152.05,74.78Z" style="fill:#e0e0e0"></path><path d="M163.1,102.41c0,.16-16.46.3-36.77.3s-36.78-.14-36.78-.3,16.46-.29,36.78-.29S163.1,102.25,163.1,102.41Z" style="fill:#e0e0e0"></path><path d="M163.1,109.24c0,.16-16.46.29-36.77.29s-36.78-.13-36.78-.29S106,109,126.33,109,163.1,109.08,163.1,109.24Z" style="fill:#e0e0e0"></path><path d="M85.91,88.53a4.39,4.39,0,0,1,4.67-4.42,4.49,4.49,0,0,1,3.65,1.6L92.7,87.09a2.51,2.51,0,0,0-2-1,2.43,2.43,0,0,0,0,4.85,2.51,2.51,0,0,0,2-1l1.53,1.38A4.47,4.47,0,0,1,90.58,93,4.39,4.39,0,0,1,85.91,88.53Z" style="fill:#e0e0e0"></path><path d="M102.12,90.92v1.86H95.3v-8.5H102v1.86H97.68v1.43h3.78v1.79H97.68v1.56Z" style="fill:#e0e0e0"></path><path d="M107.18,90.52h-1.32v2.26h-2.4v-8.5h3.89c2.32,0,3.77,1.2,3.77,3.14a2.84,2.84,0,0,1-1.66,2.69l1.83,2.67h-2.57Zm0-4.35h-1.34v2.49h1.34c1,0,1.49-.46,1.49-1.24S108.2,86.17,107.2,86.17Z" style="fill:#e0e0e0"></path><path d="M114.13,86.18h-2.61v-1.9h7.61v1.9h-2.59v6.6h-2.41Z" style="fill:#e0e0e0"></path><path d="M120,84.28h2.41v8.5H120Z" style="fill:#e0e0e0"></path><path d="M126.55,86.14V88h3.76v1.86h-3.76v2.92h-2.4v-8.5h6.67v1.86Z" style="fill:#e0e0e0"></path><path d="M131.94,84.28h2.41v8.5h-2.41Z" style="fill:#e0e0e0"></path><path d="M135.62,88.53a4.4,4.4,0,0,1,4.68-4.42,4.49,4.49,0,0,1,3.65,1.6l-1.53,1.38a2.51,2.51,0,0,0-2-1,2.43,2.43,0,0,0,0,4.85,2.51,2.51,0,0,0,2-1L144,91.34A4.47,4.47,0,0,1,140.3,93,4.4,4.4,0,0,1,135.62,88.53Z" style="fill:#e0e0e0"></path><path d="M150.57,91.12H147l-.67,1.66h-2.45l3.75-8.5H150l3.77,8.5h-2.5Zm-.71-1.77-1.09-2.72-1.09,2.72Z" style="fill:#e0e0e0"></path><path d="M155.8,86.18h-2.61v-1.9h7.61v1.9h-2.59v6.6H155.8Z" style="fill:#e0e0e0"></path><path d="M168.53,90.92v1.86H161.7v-8.5h6.67v1.86h-4.29v1.43h3.78v1.79h-3.78v1.56Z" style="fill:#e0e0e0"></path><path d="M136,126.21a8.56,8.56,0,1,1-8.56-8.55A8.56,8.56,0,0,1,136,126.21Z" style="fill:#e0e0e0"></path><path d="M127.41,134.8a8.59,8.59,0,1,1,8.59-8.59A8.59,8.59,0,0,1,127.41,134.8Zm0-17.12a8.53,8.53,0,1,0,8.53,8.53A8.54,8.54,0,0,0,127.41,117.68Z" style="fill:#e0e0e0"></path><path d="M110,126.21c0,.17-4.61.3-10.31.3s-10.31-.13-10.31-.3a92,92,0,0,1,10.31-.29A91.85,91.85,0,0,1,110,126.21Z" style="fill:#e0e0e0"></path><path d="M166.55,126.21c0,.17-5.16.3-11.53.3s-11.54-.13-11.54-.3a115,115,0,0,1,11.54-.29A114.88,114.88,0,0,1,166.55,126.21Z" style="fill:#e0e0e0"></path><path d="M104.68,124.6a2.42,2.42,0,0,1-.13-.71,7.44,7.44,0,0,1,.12-2,7.31,7.31,0,0,1,1.3-3,1.74,1.74,0,0,1,.88-.6,1.34,1.34,0,0,1,1.14.24,2.05,2.05,0,0,1,.71,2.23,6.43,6.43,0,0,1-1.26,2.23,11.08,11.08,0,0,1-1.89,2,5.65,5.65,0,0,1-2.71,1.25,4.4,4.4,0,0,1-3.12-.7,3.33,3.33,0,0,1-1.36-3,10,10,0,0,1,.92-3.33,3.78,3.78,0,0,1,1.12-1.47,2.42,2.42,0,0,1,1.89-.47,1.82,1.82,0,0,1,1.41,1.4,3.84,3.84,0,0,1-.11,1.94,12,12,0,0,1-1.69,3.26,7.59,7.59,0,0,1-2.73,2.34,5.53,5.53,0,0,1-3.46.43A4.06,4.06,0,0,1,93,124.61a5.36,5.36,0,0,1-.73-3.09,8.17,8.17,0,0,1,.76-2.87c.38-.82.86-1.81,1.9-2.08a1.27,1.27,0,0,1,1.31.61,2.84,2.84,0,0,1,.34,1.27,8.3,8.3,0,0,1-1,4.21,8.59,8.59,0,0,1-2.05,2.54,7.81,7.81,0,0,1-1.73,1.12,3.48,3.48,0,0,1-.67.25A12.49,12.49,0,0,0,93.34,125a8.65,8.65,0,0,0,1.91-2.52,8.15,8.15,0,0,0,.9-4,2.37,2.37,0,0,0-.3-1.06A.82.82,0,0,0,95,117a1.72,1.72,0,0,0-.91.68,5.58,5.58,0,0,0-.63,1.16,5.9,5.9,0,0,0,0,5.48A3.53,3.53,0,0,0,95.83,126a5,5,0,0,0,3.1-.41,9,9,0,0,0,4.1-5.25,3.38,3.38,0,0,0,.11-1.63,1.25,1.25,0,0,0-1-1,1.83,1.83,0,0,0-1.42.36,3.43,3.43,0,0,0-1,1.25,9.7,9.7,0,0,0-.88,3.11,2.82,2.82,0,0,0,1.13,2.59,3.83,3.83,0,0,0,2.73.62,5.16,5.16,0,0,0,2.48-1.12,11.31,11.31,0,0,0,1.84-1.89,6.29,6.29,0,0,0,1.21-2.06,1.66,1.66,0,0,0-.53-1.83,1.08,1.08,0,0,0-1.55.27,7.52,7.52,0,0,0-1.33,2.84A10.89,10.89,0,0,0,104.68,124.6Z" style="fill:#ebebeb"></path><path d="M163.85,123.23l-.22.13c-.16.07-.38.18-.69.3a22.07,22.07,0,0,1-2.73.94,24.84,24.84,0,0,1-4.52.83,24.1,24.1,0,0,1-2.88.11c-1,0-2.12-.2-3.18-.08a2.14,2.14,0,0,0-1.38.71,1.29,1.29,0,0,0-.17,1.47,7.43,7.43,0,0,0,1,1.5c.4.5.82,1,1.26,1.49s.91,1,1.39,1.47a4.49,4.49,0,0,0,1.57,1.21,1.39,1.39,0,0,0,1.62-.57,3,3,0,0,0,.48-2,46.88,46.88,0,0,1,2.15-19.6l.25-.73.3.71a16.49,16.49,0,0,1,1.15,5.11,16.79,16.79,0,0,1-1.17,7.13,16.58,16.58,0,0,1-1.67,3.11,5,5,0,0,1-2.69,2.27,1.64,1.64,0,0,1-1.76-.63,3.35,3.35,0,0,1-.47-1.71,18.07,18.07,0,0,1,1.89-9.12l.19-.37.24.33a3.94,3.94,0,1,1-6.37,4.63,4.09,4.09,0,0,1,.34-4.82,2.21,2.21,0,0,1,1-.68,1,1,0,0,1,1.15.32,1.55,1.55,0,0,1,.28,1.08,3.18,3.18,0,0,1-.22,1,12.64,12.64,0,0,1-3.16,4.94,12.29,12.29,0,0,1-1.19,1,2.2,2.2,0,0,1-.46.28,3.36,3.36,0,0,1,.41-.35c.26-.22.66-.56,1.13-1a13,13,0,0,0,3-4.93,2,2,0,0,0,0-1.76c-.39-.49-1.18-.16-1.61.39a3.69,3.69,0,0,0-.27,4.35,3.6,3.6,0,0,0,4.69,1,3.57,3.57,0,0,0,.93-5.06l.43,0a17.22,17.22,0,0,0-1.79,8.86,2.82,2.82,0,0,0,.36,1.42,1.11,1.11,0,0,0,1.19.4,3.27,3.27,0,0,0,1.31-.77,8.87,8.87,0,0,0,1-1.28,15.11,15.11,0,0,0,1.6-3,16.1,16.1,0,0,0,1.13-6.87,15.72,15.72,0,0,0-1.11-4.92l.54,0A46.45,46.45,0,0,0,156,130.76a3.52,3.52,0,0,1-.61,2.28,2.16,2.16,0,0,1-1,.75,1.92,1.92,0,0,1-1.23,0,5.06,5.06,0,0,1-1.74-1.34c-.49-.5-.95-1-1.39-1.5s-.87-1-1.27-1.52a8.32,8.32,0,0,1-1.1-1.61,1.75,1.75,0,0,1,.25-1.91,2.6,2.6,0,0,1,1.65-.83,7.92,7.92,0,0,1,1.69,0c.53,0,1,.08,1.55.1a26.32,26.32,0,0,0,2.85-.07,28,28,0,0,0,4.49-.72c1.21-.31,2.13-.62,2.74-.84A9.68,9.68,0,0,1,163.85,123.23Z" style="fill:#ebebeb"></path><path d="M349.06,417.87v34.85h-5.82v3.78h5.82v23.33H457.82V458.6h-8.05V454h8.05v-6.93h3.58v-3.16h-4.25v-26Z" style="fill:#f5f5f5"></path><polygon points="428.94 417.97 428.94 479.44 457.82 479.44 457.82 458.21 449.77 458.21 449.77 453.98 457.82 454.12 457.82 447.19 461.48 447.19 461.4 443.61 457.15 443.51 457.15 417.87 428.94 417.97" style="fill:#e0e0e0"></polygon><path d="M431,456c0,.21-19.68.39-43.95.39s-44-.18-44-.39,19.68-.38,44-.38S431,455.79,431,456Z" style="fill:#e0e0e0"></path><path d="M431,452.46c0,.22-19.68.39-43.95.39s-44-.17-44-.39,19.68-.38,44-.38S431,452.25,431,452.46Z" style="fill:#e0e0e0"></path><path d="M436.65,442.93c0,.22-19.68.39-44,.39s-43.95-.17-43.95-.39,19.67-.38,43.95-.38S436.65,442.72,436.65,442.93Z" style="fill:#e0e0e0"></path><path d="M437.19,468.9c0,.21-19.68.38-43.95.38s-44-.17-44-.38,19.68-.39,44-.39S437.19,468.68,437.19,468.9Z" style="fill:#e0e0e0"></path><rect x="135.53" y="422.29" width="20.12" height="14.35" style="fill:#fafafa"></rect><rect x="50.13" y="421.77" width="85.62" height="15.39" style="fill:#f5f5f5"></rect><path d="M135.13,422.81h21.62a.52.52,0,0,0,.52-.52h0a.52.52,0,0,0-.52-.52H135.13Z" style="fill:#f5f5f5"></path><path d="M135.13,436.12h21.73a.42.42,0,0,1,.42.42v.2a.42.42,0,0,1-.42.42H135.13a0,0,0,0,1,0,0v-1A0,0,0,0,1,135.13,436.12Z" style="fill:#f5f5f5"></path><path d="M155.64,425c0,.06-4.45.12-9.94.12s-9.95-.06-9.95-.12,4.45-.12,9.95-.12S155.64,425,155.64,425Z" style="fill:#e0e0e0"></path><path d="M155.64,427.73c0,.07-4.45.12-9.94.12s-9.95-.05-9.95-.12,4.45-.11,9.95-.11S155.64,427.67,155.64,427.73Z" style="fill:#e0e0e0"></path><path d="M155.64,430.45c0,.07-4.45.12-9.94.12s-9.95-.05-9.95-.12,4.45-.12,9.95-.12S155.64,430.39,155.64,430.45Z" style="fill:#e0e0e0"></path><path d="M155.64,433.17c0,.06-4.45.11-9.94.11s-9.95,0-9.95-.11,4.45-.12,9.95-.12S155.64,433.1,155.64,433.17Z" style="fill:#e0e0e0"></path><rect x="138.16" y="438.53" width="20.53" height="38.91" style="fill:#ebebeb"></rect><rect x="41.77" y="437.17" width="96.39" height="42.19" style="fill:#e0e0e0"></rect><path d="M160.3,479.35H135.53v-2.73H160.3a1.37,1.37,0,0,1,1.37,1.37h0A1.36,1.36,0,0,1,160.3,479.35Z" style="fill:#e0e0e0"></path><path d="M135.53,437.17h25a1.1,1.1,0,0,1,1.1,1.1v.53a1.1,1.1,0,0,1-1.1,1.1h-25a0,0,0,0,1,0,0v-2.74A0,0,0,0,1,135.53,437.17Z" style="fill:#e0e0e0"></path><path d="M158.7,443.75c0,.07-4.6.12-10.27.12s-10.27-.05-10.27-.12,4.6-.12,10.27-.12S158.7,443.69,158.7,443.75Z" style="fill:#e0e0e0"></path><path d="M158.7,448.74c0,.07-4.6.12-10.27.12s-10.27-.05-10.27-.12,4.6-.12,10.27-.12S158.7,448.68,158.7,448.74Z" style="fill:#e0e0e0"></path><path d="M158.7,453.73c0,.07-4.6.12-10.27.12s-10.27-.05-10.27-.12,4.6-.12,10.27-.12S158.7,453.67,158.7,453.73Z" style="fill:#e0e0e0"></path><path d="M158.7,458.72c0,.07-4.6.12-10.27.12s-10.27,0-10.27-.12,4.6-.12,10.27-.12S158.7,458.66,158.7,458.72Z" style="fill:#e0e0e0"></path><path d="M158.7,463.71c0,.07-4.6.12-10.27.12s-10.27-.05-10.27-.12,4.6-.12,10.27-.12S158.7,463.65,158.7,463.71Z" style="fill:#e0e0e0"></path><path d="M158.7,468.7c0,.07-4.6.12-10.27.12s-10.27-.05-10.27-.12,4.6-.12,10.27-.12S158.7,468.64,158.7,468.7Z" style="fill:#e0e0e0"></path><path d="M158.7,473.69c0,.07-4.6.12-10.27.12s-10.27-.05-10.27-.12,4.6-.12,10.27-.12S158.7,473.63,158.7,473.69Z" style="fill:#e0e0e0"></path><path d="M70.11,467.46a3.14,3.14,0,0,0,1.3-.24,1.35,1.35,0,0,0,.66-1.32V455.15a1.33,1.33,0,0,0-.63-1.3,3.34,3.34,0,0,0-1.33-.26V453h7.76v.56a3.42,3.42,0,0,0-1.8.38q-.45.33-.45,1.65v10.49a1.07,1.07,0,0,0,.38,1,3.18,3.18,0,0,0,1.5.24,6.06,6.06,0,0,0,3.37-.88A7,7,0,0,0,83.21,463h.65l-.9,5H70.11Z" style="fill:#fff"></path><path d="M84.91,467.46a1.63,1.63,0,0,0,1.29-.73,10,10,0,0,0,.9-1.86L92,452.72h.62l4.95,11.66a16.36,16.36,0,0,0,1.25,2.53,1.31,1.31,0,0,0,1.17.55V468H92.84v-.56a5.31,5.31,0,0,0,1.42-.18c.23-.1.34-.34.34-.72a2.66,2.66,0,0,0-.17-.79c-.07-.21-.17-.46-.29-.76l-.57-1.34h-5c-.33.88-.54,1.45-.63,1.72a4.24,4.24,0,0,0-.29,1.25c0,.32.21.55.64.69a4.3,4.3,0,0,0,1.13.13V468H84.91Zm8.34-4.67-2.14-5.14h-.19l-2,5.14Z" style="fill:#fff"></path><path d="M105,453v.54a3.41,3.41,0,0,0-1.1.23q-.3.15-.3.69a2,2,0,0,0,0,.33,3.34,3.34,0,0,0,.1.4l2.72,7.77h0l2.53-6.5a5.33,5.33,0,0,0-.31-1,8.1,8.1,0,0,0-.46-1.15,1.51,1.51,0,0,0-.55-.55,2.76,2.76,0,0,0-1.08-.22V453h6.94v.54a5.39,5.39,0,0,0-1.27.2.56.56,0,0,0-.32.59,2.15,2.15,0,0,0,.07.42,7.59,7.59,0,0,0,.24.85l2.55,7.15h-.09l2.42-7.3a4.26,4.26,0,0,0,.11-.42,3.6,3.6,0,0,0,0-.49.82.82,0,0,0-.47-.83,3.63,3.63,0,0,0-1.07-.17V453h4.06v.54a2,2,0,0,0-.79.26,2.18,2.18,0,0,0-.76,1.16l-4.44,13.4h-.58L109.56,458h-.15l-4.07,10.42h-.62L100,455a2.52,2.52,0,0,0-.6-1.1,2,2,0,0,0-1-.32V453Z" style="fill:#fff"></path><path d="M73.36,425.35a6,6,0,0,0,.75.19.59.59,0,0,0,.31-.09.47.47,0,0,0,.21-.28h.24L75,427.8h-.27a3.67,3.67,0,0,0-.61-1.27,2.34,2.34,0,0,0-1.93-.9,2.45,2.45,0,0,0-2,1,4.17,4.17,0,0,0-.78,2.68,3.66,3.66,0,0,0,.82,2.5,2.64,2.64,0,0,0,2.07.93,3.34,3.34,0,0,0,1.68-.43,5.07,5.07,0,0,0,1-.75l.22.22a3.79,3.79,0,0,1-1,.86A4.17,4.17,0,0,1,69,432a4,4,0,0,1-1-2.79,4.06,4.06,0,0,1,1.08-2.87,3.85,3.85,0,0,1,3-1.21A5,5,0,0,1,73.36,425.35Z" style="fill:#e0e0e0"></path><path d="M76.55,428.47a2.42,2.42,0,0,1,1.86-.78,2.53,2.53,0,0,1,1.88.74,2.71,2.71,0,0,1,.74,2,3,3,0,0,1-.72,2,2.34,2.34,0,0,1-1.86.84,2.46,2.46,0,0,1-1.86-.81,2.82,2.82,0,0,1-.76-2A2.77,2.77,0,0,1,76.55,428.47Zm.91-.14a2.33,2.33,0,0,0-.57,1.79,4.13,4.13,0,0,0,.46,1.9,1.41,1.41,0,0,0,1.28.88,1.09,1.09,0,0,0,1-.59,3,3,0,0,0,.35-1.54,4.18,4.18,0,0,0-.44-1.87,1.39,1.39,0,0,0-1.28-.87A1.16,1.16,0,0,0,77.46,428.33Z" style="fill:#e0e0e0"></path><path d="M81.6,432.89a1.1,1.1,0,0,0,.57-.2,1,1,0,0,0,.16-.68V429.1a1.17,1.17,0,0,0-.07-.5.44.44,0,0,0-.45-.22h-.24v-.2c.16,0,.53-.16,1.11-.35l.54-.18a0,0,0,0,1,0,0s0,0,0,.08v.84a6.32,6.32,0,0,1,.82-.68,1.76,1.76,0,0,1,.92-.28,1.2,1.2,0,0,1,.71.23,1.77,1.77,0,0,1,.62,1.55v2.67a.87.87,0,0,0,.16.59.71.71,0,0,0,.55.19v.16H84.62v-.16a1,1,0,0,0,.58-.23,1.19,1.19,0,0,0,.17-.76v-2.44a1.69,1.69,0,0,0-.18-.82.71.71,0,0,0-.67-.32,1.23,1.23,0,0,0-.68.23,4.47,4.47,0,0,0-.51.43v3.21a.68.68,0,0,0,.19.55,1,1,0,0,0,.57.15v.16H81.6Z" style="fill:#e0e0e0"></path><path d="M87.85,431.25H88a3,3,0,0,0,.35,1,1.3,1.3,0,0,0,1.17.64.94.94,0,0,0,.68-.24.83.83,0,0,0,.25-.61.84.84,0,0,0-.15-.47,1.48,1.48,0,0,0-.5-.43l-.64-.37a3.47,3.47,0,0,1-1-.76,1.28,1.28,0,0,1-.34-.9,1.36,1.36,0,0,1,.46-1.05,1.64,1.64,0,0,1,1.15-.41,2.52,2.52,0,0,1,.67.11l.4.12a.28.28,0,0,0,.15,0,.24.24,0,0,0,.08-.09h.14l0,1.59h-.18a2.43,2.43,0,0,0-.31-.86,1.12,1.12,0,0,0-1-.57.82.82,0,0,0-.63.24.85.85,0,0,0-.23.58c0,.35.27.66.79.94l.76.4c.81.44,1.21,1,1.21,1.55a1.37,1.37,0,0,1-.5,1.1,2,2,0,0,1-1.32.43,3,3,0,0,1-.78-.12,4.44,4.44,0,0,0-.51-.11.17.17,0,0,0-.12.05.25.25,0,0,0-.08.12h-.15Z" style="fill:#e0e0e0"></path><path d="M94.77,427.78v.41H93.61v3.29a2.24,2.24,0,0,0,.07.66.53.53,0,0,0,.54.39.68.68,0,0,0,.35-.09,1.85,1.85,0,0,0,.35-.31l.15.12-.13.18a1.9,1.9,0,0,1-.63.56,1.43,1.43,0,0,1-.64.17.89.89,0,0,1-.91-.6,2.47,2.47,0,0,1-.13-.91v-3.46H92l0,0a.09.09,0,0,1,0-.05.2.2,0,0,1,0-.09,1.19,1.19,0,0,1,.17-.14,5.11,5.11,0,0,0,.56-.53c.12-.14.39-.5.83-1.07h.08s0,0,0,.08v1.41Z" style="fill:#e0e0e0"></path><path d="M95.28,432.89a1.51,1.51,0,0,0,.77-.21,1.33,1.33,0,0,0,.16-.82v-2.73a1.89,1.89,0,0,0,0-.51.34.34,0,0,0-.36-.23h-.13a1.86,1.86,0,0,0-.34.09v-.18l.24-.08c.67-.22,1.13-.38,1.4-.49a.57.57,0,0,1,.2-.07.28.28,0,0,1,0,.09v4.1a1.39,1.39,0,0,0,.16.82,1.18,1.18,0,0,0,.71.21v.16H95.28Zm.9-7.64a.58.58,0,0,1,.43-.18.61.61,0,0,1,.42.17.61.61,0,0,1,.17.43.58.58,0,0,1-.59.59.61.61,0,0,1-.43-.17.61.61,0,0,1-.17-.42A.57.57,0,0,1,96.18,425.25Z" style="fill:#e0e0e0"></path><path d="M101.28,427.78v.41h-1.17v3.29a2.24,2.24,0,0,0,.07.66.53.53,0,0,0,.54.39.69.69,0,0,0,.36-.09,1.83,1.83,0,0,0,.34-.31l.15.12-.12.18a1.9,1.9,0,0,1-.63.56,1.46,1.46,0,0,1-.64.17.91.91,0,0,1-.92-.6,2.7,2.7,0,0,1-.13-.91v-3.46H98.5l0,0s0,0,0-.05a.12.12,0,0,1,0-.09.9.9,0,0,1,.16-.14,6.7,6.7,0,0,0,.57-.53c.12-.14.39-.5.82-1.07h.09s0,0,0,.08v1.41Z" style="fill:#e0e0e0"></path><path d="M103.36,427.76v3.65a1.58,1.58,0,0,0,.11.63.78.78,0,0,0,.78.43,1.27,1.27,0,0,0,.76-.26,2.13,2.13,0,0,0,.43-.39v-3.13a.74.74,0,0,0-.17-.58,1.36,1.36,0,0,0-.69-.17v-.18h1.85v4a.72.72,0,0,0,.14.53.79.79,0,0,0,.59.13v.16l-.46.13-.5.16-.65.25s0,0,0,0v-1a3.62,3.62,0,0,1-.71.68,1.78,1.78,0,0,1-1,.35,1.48,1.48,0,0,1-.94-.36,1.41,1.41,0,0,1-.44-1.17v-3a.75.75,0,0,0-.2-.61,1.14,1.14,0,0,0-.54-.13v-.16Z" style="fill:#e0e0e0"></path><path d="M110.38,427.78v.41h-1.16v3.29a2.24,2.24,0,0,0,.07.66.53.53,0,0,0,.54.39.68.68,0,0,0,.35-.09,1.85,1.85,0,0,0,.35-.31l.15.12-.13.18a1.73,1.73,0,0,1-.63.56,1.43,1.43,0,0,1-.64.17.89.89,0,0,1-.91-.6,2.47,2.47,0,0,1-.13-.91v-3.46h-.62l0,0a.09.09,0,0,1,0-.05.2.2,0,0,1,0-.09l.17-.14a6.7,6.7,0,0,0,.57-.53l.82-1.07c.05,0,.08,0,.08,0s0,0,0,.08v1.41Z" style="fill:#e0e0e0"></path><path d="M110.89,432.89a1.51,1.51,0,0,0,.77-.21,1.33,1.33,0,0,0,.16-.82v-2.73a1.89,1.89,0,0,0,0-.51.34.34,0,0,0-.36-.23h-.13a1.86,1.86,0,0,0-.34.09v-.18l.24-.08c.67-.22,1.14-.38,1.4-.49a.65.65,0,0,1,.2-.07.29.29,0,0,1,0,.09v4.1a1.41,1.41,0,0,0,.15.82,1.21,1.21,0,0,0,.71.21v.16h-2.77Zm.91-7.64a.54.54,0,0,1,.42-.18.61.61,0,0,1,.42.17.61.61,0,0,1,.17.43.58.58,0,0,1-.59.59.6.6,0,0,1-.6-.59A.54.54,0,0,1,111.8,425.25Z" style="fill:#e0e0e0"></path><path d="M114.93,428.47a2.42,2.42,0,0,1,1.86-.78,2.53,2.53,0,0,1,1.88.74,2.71,2.71,0,0,1,.74,2,3,3,0,0,1-.72,2,2.34,2.34,0,0,1-1.86.84,2.43,2.43,0,0,1-1.86-.81,2.82,2.82,0,0,1-.76-2A2.77,2.77,0,0,1,114.93,428.47Zm.91-.14a2.33,2.33,0,0,0-.57,1.79,4,4,0,0,0,.46,1.9,1.41,1.41,0,0,0,1.28.88,1.09,1.09,0,0,0,1-.59,3,3,0,0,0,.35-1.54,4.06,4.06,0,0,0-.45-1.87,1.37,1.37,0,0,0-1.27-.87A1.16,1.16,0,0,0,115.84,428.33Z" style="fill:#e0e0e0"></path><path d="M120,432.89a1,1,0,0,0,.56-.2,1,1,0,0,0,.17-.68V429.1a1.36,1.36,0,0,0-.07-.5.44.44,0,0,0-.45-.22H120v-.2c.16,0,.53-.16,1.11-.35l.54-.18a0,0,0,0,1,.05,0s0,0,0,.08v.84a6.32,6.32,0,0,1,.82-.68,1.74,1.74,0,0,1,.92-.28,1.2,1.2,0,0,1,.71.23,1.77,1.77,0,0,1,.62,1.55v2.67a.87.87,0,0,0,.16.59.71.71,0,0,0,.55.19v.16H123v-.16a1,1,0,0,0,.58-.23,1.19,1.19,0,0,0,.17-.76v-2.44a1.69,1.69,0,0,0-.18-.82.72.72,0,0,0-.67-.32,1.26,1.26,0,0,0-.69.23,4.54,4.54,0,0,0-.5.43v3.21a.65.65,0,0,0,.19.55,1,1,0,0,0,.57.15v.16H120Z" style="fill:#e0e0e0"></path><rect x="446.91" y="394.54" width="18.97" height="22.55" style="fill:#f5f5f5"></rect><rect x="361.85" y="393.07" width="85.71" height="25.44" style="fill:#e0e0e0"></rect><path d="M466.45,395.2H445.27v-2.13h21.18a1.06,1.06,0,0,1,1.07,1.07h0A1.06,1.06,0,0,1,466.45,395.2Z" style="fill:#e0e0e0"></path><path d="M466.45,418.5H445.27v-2.14h21.18a1.07,1.07,0,0,1,1.07,1.07h0A1.07,1.07,0,0,1,466.45,418.5Z" style="fill:#e0e0e0"></path><rect x="430.7" y="393.07" width="10.13" height="25.44" style="fill:#ebebeb"></rect><rect x="370" y="393.35" width="10.13" height="25.44" style="fill:#ebebeb"></rect><path d="M465.88,398.26c0,.07-4.11.12-9.17.12s-9.17-.05-9.17-.12,4.11-.11,9.17-.11S465.88,398.2,465.88,398.26Z" style="fill:#e0e0e0"></path><path d="M465.88,401.65c0,.06-4.11.11-9.17.11s-9.17-.05-9.17-.11,4.11-.12,9.17-.12S465.88,401.58,465.88,401.65Z" style="fill:#e0e0e0"></path><path d="M465.88,405.81c0,.06-4.11.11-9.17.11s-9.17-.05-9.17-.11,4.11-.11,9.17-.11S465.88,405.75,465.88,405.81Z" style="fill:#e0e0e0"></path><path d="M465.88,410c0,.06-4.11.12-9.17.12s-9.17-.06-9.17-.12,4.11-.11,9.17-.11S465.88,409.91,465.88,410Z" style="fill:#e0e0e0"></path><path d="M465.88,414.14c0,.06-4.11.11-9.17.11s-9.17-.05-9.17-.11,4.11-.12,9.17-.12S465.88,414.07,465.88,414.14Z" style="fill:#e0e0e0"></path><rect x="386.69" y="403.52" width="38.56" height="4.58" style="fill:#ebebeb"></rect><polygon points="429.56 368.37 440.23 393.42 433.36 393.42 428.63 380.04 429.56 368.37" style="fill:#e0e0e0"></polygon><polygon points="396.81 345.7 392.69 393.42 427.55 393.42 431.38 345.7 396.81 345.7" style="fill:#ebebeb"></polygon><polygon points="400.22 349.49 396.61 389.46 422.77 389.8 426.31 349.26 400.22 349.49" style="fill:#fafafa"></polygon><polygon points="405.77 355.02 403.72 382.53 417.67 382.53 420.14 355.02 405.77 355.02" style="fill:#e0e0e0"></polygon><polygon points="466.91 100.98 466.91 176.4 358.6 176.4 354.69 101.51 466.91 100.98" style="fill:#e0e0e0"></polygon><rect x="371.49" y="84.71" width="74.73" height="108.32" transform="translate(269.98 547.72) rotate(-90)" style="fill:#fff"></rect><path d="M463.53,176.75H354.18V101H463.53Zm-108.32-1H462.5V102H355.21Z" style="fill:#e0e0e0"></path><rect x="366.42" y="110.79" width="84.86" height="56.16" style="fill:#fff"></rect><path d="M451.28,110.79l-.42,0h-1.21l-4.66,0-17.48.07-61.09.12.25-.25c0,17.16,0,36.17,0,56.15h0l-.27-.27,84.86.06-.21.21c0-17.09.08-31.1.11-40.86,0-4.88,0-8.69.05-11.3q0-1.94,0-3c0-.67,0-1,0-1s0,.33,0,1,0,1.65,0,2.93c0,2.6,0,6.39.05,11.25,0,9.79.07,23.85.11,41v.21h-.21l-84.86.06h-.26V167h0c0-20,0-39,0-56.15v-.25h.24l61.25.12,17.43.06,4.61,0,1.18,0Z" style="fill:#e0e0e0"></path><path d="M354.69,101.3a8.64,8.64,0,0,1,1.87,1.2c1.1.8,2.61,1.94,4.24,3.24s3.06,2.54,4.07,3.46a9,9,0,0,1,1.55,1.59c-.1.11-2.7-2-5.95-4.63A61.22,61.22,0,0,1,354.69,101.3Z" style="fill:#e0e0e0"></path><path d="M463,101.51a54.48,54.48,0,0,1-5.7,4.85,52.56,52.56,0,0,1-6,4.43,51.78,51.78,0,0,1,5.7-4.85A51.13,51.13,0,0,1,463,101.51Z" style="fill:#e0e0e0"></path><path d="M462.93,176.25l-12.08-9.79" style="fill:#fff"></path><path d="M450.85,166.46a56.49,56.49,0,0,1,6.21,4.68,57.45,57.45,0,0,1,5.87,5.11,56.77,56.77,0,0,1-6.21-4.69A56.82,56.82,0,0,1,450.85,166.46Z" style="fill:#e0e0e0"></path><path d="M354.69,176.24a51.87,51.87,0,0,1,5.64-4.81,53.64,53.64,0,0,1,6-4.38,49,49,0,0,1-5.64,4.8A52,52,0,0,1,354.69,176.24Z" style="fill:#e0e0e0"></path><rect x="400.95" y="110.99" width="18.8" height="53.39" transform="translate(272.66 548.04) rotate(-90)" style="fill:#e0e0e0"></rect></g><g id="freepik--Desk--inject-64"><path d="M464.41,479.38c0,.15-96.05.27-214.5.27s-214.52-.12-214.52-.27,96-.26,214.52-.26S464.41,479.24,464.41,479.38Z" style="fill:#263238"></path></g><g id="freepik--Plant--inject-64"><path d="M138.27,396.22c4.42-2.28,9.63-2.57,14.54-1.76,2.63.43,5.38,1.22,7.18,3.2s2.13,5.47.07,7.17a6.9,6.9,0,0,1-4.53,1.15c-3.84-.05-8.1-.72-11.17,1.59-1.75,1.32-2.92,3.51-5,4.16a5,5,0,0,1-5.45-2.43,8.46,8.46,0,0,1-.61-6.24A9.53,9.53,0,0,1,138.27,396.22Z" style="fill:#DC4300"></path><path d="M128.15,376.67c2.7,3.86,7.95,2.58,10.39.23s3.46-5.77,4.4-9c2.14-7.44,4.3-15.25,2.71-22.83a12.66,12.66,0,0,0-2.92-6.2,6.62,6.62,0,0,0-6.27-2.09c-2.65.7-4.3,3.29-5.49,5.76a54.45,54.45,0,0,0-5.38,23.35c0,3.76.43,7.71,2.56,10.81" style="fill:#DC4300"></path><path d="M120.72,382.21c2.94-3.48,3.49-8.56,2.19-12.93s-4.26-8.07-7.66-11.1a41.16,41.16,0,0,0-13.71-8.09,14.54,14.54,0,0,0-6.16-1,6.48,6.48,0,0,0-5.18,3.13c-1.44,2.75-.06,6.09,1.44,8.81a104.54,104.54,0,0,0,9,13.72c2.7,3.48,5.79,6.91,9.91,8.48s8.38,1.39,10.57-1.46" style="fill:#DC4300"></path><path d="M128,434.91a8.07,8.07,0,0,0,.25-1.76c.12-1.27.28-2.88.46-4.78a71,71,0,0,1,1.08-7,54.57,54.57,0,0,1,2.55-8.28,30.32,30.32,0,0,1,4.24-7.5,15.75,15.75,0,0,1,5.35-4.45,14.77,14.77,0,0,1,4.5-1.4,8.51,8.51,0,0,0,1.75-.26,8.73,8.73,0,0,0-1.78,0,13.47,13.47,0,0,0-4.7,1.22,15.67,15.67,0,0,0-5.64,4.49,29.63,29.63,0,0,0-4.39,7.65,50.33,50.33,0,0,0-2.53,8.42,59.81,59.81,0,0,0-.94,7.11c-.15,2-.21,3.68-.23,4.82A8.16,8.16,0,0,0,128,434.91Z" style="fill:#263238"></path><path d="M128.29,431.22a3.2,3.2,0,0,0,.05-.81c0-.61,0-1.38,0-2.33,0-2,0-4.94.11-8.55.18-7.22.8-15,2-25.94,1.14-10.31,2.66-22.29,4.27-30.09.35-1.77.7-3.36,1-4.76s.58-2.61.84-3.58.4-1.67.54-2.27a3.88,3.88,0,0,0,.15-.8,2.82,2.82,0,0,0-.29.76l-.67,2.23c-.3,1-.61,2.17-1,3.56s-.75,3-1.13,4.76a264.43,264.43,0,0,0-4.49,27.91c-1.2,11-1.75,21-1.79,28.21-.05,3.62,0,6.55.12,8.57.06,1,.11,1.72.14,2.33A3.46,3.46,0,0,0,128.29,431.22Z" style="fill:#263238"></path><path d="M128.34,412a15.59,15.59,0,0,0,0-2.43c-.09-1.57-.3-3.83-.74-6.59a88.54,88.54,0,0,0-2.14-9.6,79.35,79.35,0,0,0-4-11.36,60.56,60.56,0,0,0-11.78-18.35,30.05,30.05,0,0,0-2.78-2.58c-.42-.36-.8-.72-1.18-1l-1.08-.74a14.29,14.29,0,0,0-2-1.31c-.12.15,2.9,1.93,6.71,6a63.91,63.91,0,0,1,11.49,18.29,92.09,92.09,0,0,1,4,11.25c1,3.53,1.75,6.77,2.28,9.51s.79,5,1,6.52A16.46,16.46,0,0,0,128.34,412Z" style="fill:#263238"></path><polygon points="109.71 445.95 111.64 472.42 145.64 472.42 147.57 445.95 109.71 445.95" style="fill:#263238"></polygon><rect x="106.42" y="435.52" width="45.2" height="10.43" style="fill:#263238"></rect><polygon points="106.42 471.4 106.42 474.3 108.55 474.3 150.88 474.3 150.88 471.4 106.42 471.4" style="fill:#455a64"></polygon><polygon points="110.63 479.38 108.55 474.3 149.26 474.3 146.83 479.38 110.63 479.38" style="fill:#455a64"></polygon><path d="M146.94,454.6s-.05.09-.16.25-.3.4-.51.67c-.48.62-1.14,1.47-2,2.53l-.09.12-.08-.12-4.87-6.73h.28l-4.79,6.78-.15.21-.17-.2-5.68-6.76h.33l-.31.39-5.08,6.37-.17.21-.16-.22-4.79-6.78.28,0-5.91,6.72-.1.12-.08-.13-1.85-3.11-.47-.83a1.36,1.36,0,0,1-.15-.29s.08.08.2.26l.53.8,1.94,3.05-.19,0,5.81-6.81.15-.17.13.19,4.83,6.75h-.32l5.07-6.38.31-.39.16-.21.17.2,5.66,6.78h-.32l4.84-6.75.14-.2.14.2,4.77,6.8h-.18l2.06-2.47.55-.64Z" style="fill:#e0e0e0"></path><path d="M148,445.78c0,.12-8.52.21-19,.21s-19-.09-19-.21,8.52-.21,19-.21S148,445.66,148,445.78Z" style="fill:#455a64"></path><path d="M149.76,474.58c0,.12-9.26.21-20.68.21s-20.67-.09-20.67-.21,9.25-.21,20.67-.21S149.76,474.46,149.76,474.58Z" style="fill:#263238"></path></g><g id="freepik--Character--inject-64"><path d="M204.33,479.38c-.55-2.21,15.58-83.58,15.58-83.58l86.39-12.36s35.06,21.35,36.16,39,9.25,56.91,9.25,56.91h-83.6L265.47,476l-1.7,3.14Z" style="fill:#263238"></path><path d="M272.24,463.19s0,.05,0,.15a2.17,2.17,0,0,1-.1.42,3.51,3.51,0,0,1-.89,1.41,4.92,4.92,0,0,1-2.3,1.29,5.14,5.14,0,0,1-3.46-.36,7.68,7.68,0,0,1-3.17-2.81,13.07,13.07,0,0,1-1.78-4.51c-.36-1.67-.56-3.43-.83-5.25s-.52-3.7-.79-5.63c-1-7.69-2-14.65-2.66-19.78-.31-2.48-.56-4.51-.75-6-.07-.66-.13-1.2-.18-1.63a2.32,2.32,0,0,1,0-.58,3.34,3.34,0,0,1,.13.56l.27,1.62c.23,1.49.54,3.51.91,6,.73,5.12,1.72,12.08,2.82,19.76q.4,2.9.78,5.63c.26,1.82.45,3.59.79,5.22a12.89,12.89,0,0,0,1.67,4.38,7.6,7.6,0,0,0,3,2.71,4.8,4.8,0,0,0,3.25.4A4.67,4.67,0,0,0,271.1,465,4.23,4.23,0,0,0,272.24,463.19Z" style="fill:#455a64"></path><path d="M265,414.26a1.53,1.53,0,0,1,.94-.14,3.34,3.34,0,0,1,2.29,1.23,3.78,3.78,0,0,1,.42,3.8,4.36,4.36,0,0,1-3.83,2.65,3.83,3.83,0,0,1-2.43-.69,4.05,4.05,0,0,1-1.43-1.85,3.63,3.63,0,0,1-.18-2.12,3.35,3.35,0,0,1,.88-1.62,3.75,3.75,0,0,1,2.34-1.14,1.8,1.8,0,0,1,.94.12c0,.05-.34,0-.92.09a3.73,3.73,0,0,0-2.09,1.18,3.12,3.12,0,0,0-.53,3.31,3.47,3.47,0,0,0,3.39,2.2,3.93,3.93,0,0,0,3.42-2.32,3.4,3.4,0,0,0-.28-3.38,3.18,3.18,0,0,0-2-1.26C265.36,414.22,265,414.31,265,414.26Z" style="fill:#455a64"></path><path d="M321,185.25H275.4l-5.07,13.42-28.92,39.65L218.69,402l28.92,5.35a54,54,0,0,0,15.23.64l43.46-4.29,1.3-146L328.77,199Z" style="fill:#f5f5f5"></path><path d="M286.35,214s0,.17-.12.49-.23.82-.41,1.44c-.38,1.28-.92,3.13-1.62,5.5s-1.59,5.31-2.55,8.72-2.1,7.27-3.24,11.58-2.45,9-3.72,14.09-2.61,10.51-4,16.23c-2.68,11.48-5.42,24.13-8,37.48s-4.6,26.15-6.31,37.81c-.81,5.83-1.61,11.37-2.22,16.58s-1.22,10-1.7,14.47-.87,8.44-1.22,12-.62,6.56-.83,9-.38,4.39-.5,5.72c-.06.63-.11,1.13-.14,1.48s-.07.51-.07.51a4.88,4.88,0,0,1,0-.51c0-.36.06-.85.09-1.49.1-1.33.24-3.26.41-5.72s.4-5.53.74-9.06.65-7.54,1.14-12,1-9.29,1.64-14.49,1.38-10.75,2.18-16.59c1.68-11.67,3.75-24.46,6.27-37.83s5.31-26,8-37.5c1.4-5.72,2.7-11.17,4-16.23s2.59-9.79,3.79-14.08,2.33-8.16,3.31-11.56,1.88-6.32,2.63-8.7l1.72-5.47.46-1.42Z" style="fill:#263238"></path><path d="M231.84,389.07a39.55,39.55,0,0,0,.95,8.41,38.77,38.77,0,0,0,3.27,7.82,8.55,8.55,0,0,1-1.47-2.05,22.87,22.87,0,0,1-3-11.68A8.56,8.56,0,0,1,231.84,389.07Z" style="fill:#263238"></path><path d="M234.4,405.92a4.68,4.68,0,0,1-1.67-.8,15.44,15.44,0,0,1-5.79-6.64,4.85,4.85,0,0,1-.57-1.76,22.44,22.44,0,0,0,8,9.2Z" style="fill:#263238"></path><path d="M269.59,390.51a8.64,8.64,0,0,1,.18,2.56,27.85,27.85,0,0,1-.81,6.13,27,27,0,0,1-2.14,5.81,9,9,0,0,1-1.34,2.18,21.74,21.74,0,0,1,1-2.34,35,35,0,0,0,2.91-11.8A20,20,0,0,1,269.59,390.51Z" style="fill:#263238"></path><path d="M271.52,195.51s-27.85,11.78-31.86,12.55-18,4.28-18,4.28-10.78,19.3-9.78,30.34,8.53,90.25,8.53,90.25-12.29,68.44-12.54,73.46S197,459.29,199.05,459s11.28-10.53,11.28-10.53l30.59-168.23s8-38.61,14-51.14,16.56-28.83,16.56-28.83Z" style="fill:#263238"></path><path d="M230.68,336.58a2.59,2.59,0,0,1,0-.4c0-.28,0-.67-.06-1.16-.05-1-.12-2.54-.2-4.45-.15-3.9-.35-9.5-.6-16.4s-.49-15.18-.7-24.34c-.1-4.58-.2-9.38-.21-14.37a67.68,67.68,0,0,1,2.53-15.25c2.19-8.47,4.94-16.41,7.59-23.75s5.33-14.06,7.8-20l0,0,0,0q4.22-3.53,7.73-6.47l.18.3-5.69,2.23-.52.2.35-.43,6.43-8.12c.74-.92,1.31-1.64,1.72-2.14l.45-.55c.1-.12.16-.18.16-.17a1.08,1.08,0,0,1-.13.2l-.42.57-1.66,2.18-6.32,8.21-.17-.23,5.67-2.27,1-.41-.83.7-7.69,6.52.06-.08c-2.44,5.91-5.08,12.63-7.73,20s-5.36,15.28-7.54,23.72a67.23,67.23,0,0,0-2.53,15.12c0,5,.1,9.79.18,14.36.22,9.16.42,17.4.59,24.34s.33,12.5.43,16.4c0,1.91.08,3.41.1,4.46,0,.49,0,.88,0,1.16A2.47,2.47,0,0,1,230.68,336.58Z" style="fill:#455a64"></path><path d="M221.61,212.34s-9.18,7-10.75,14.9-3.92,41.34-3.92,41.34S203,273,203,273.8s-1.89,21.77-1.89,21.77l-29.46-37-26.76,25.27s34.71,60.69,48.45,66.08c20.92,8.21,27.17-3.7,27.17-3.7l3.14-48.87Z" style="fill:#263238"></path><path d="M214.81,245.65a1,1,0,0,1,.06.27c0,.21.08.47.13.79l.45,3.06c.38,2.65.91,6.49,1.53,11.24,1.22,9.5,2.82,22.65,3.67,37.25.4,7.31.53,14.28.45,20.62-.08,3.17-.13,6.18-.32,9-.09,1.41-.14,2.77-.25,4.08s-.22,2.55-.33,3.74c-.18,2.4-.49,4.54-.71,6.43-.12.95-.23,1.82-.34,2.64s-.25,1.53-.35,2.2c-.22,1.29-.39,2.31-.52,3-.06.32-.11.58-.14.79s-.06.27-.07.26a1.37,1.37,0,0,1,0-.27c0-.21.06-.47.1-.8.1-.73.24-1.76.42-3.05.09-.67.19-1.41.31-2.21s.19-1.69.29-2.63c.2-1.89.48-4,.64-6.43.09-1.19.19-2.44.29-3.74s.14-2.66.21-4.07c.18-2.81.21-5.81.28-9,.06-6.32-.09-13.28-.49-20.58-.85-14.58-2.39-27.73-3.52-37.24-.57-4.72-1-8.56-1.36-11.26-.15-1.3-.26-2.32-.35-3.06,0-.33-.06-.59-.08-.8A1.49,1.49,0,0,1,214.81,245.65Z" style="fill:#455a64"></path><path d="M209.42,324.6a5.12,5.12,0,0,1-.13-1.19c0-.76-.13-1.87-.27-3.23a64.09,64.09,0,0,0-2-10.47,63.08,63.08,0,0,0-3.75-10c-.58-1.24-1.08-2.23-1.44-2.9a5.31,5.31,0,0,1-.5-1.09,5.15,5.15,0,0,1,.68,1c.41.64,1,1.61,1.59,2.83a53.53,53.53,0,0,1,5.76,20.59c.1,1.37.13,2.48.11,3.25A5,5,0,0,1,209.42,324.6Z" style="fill:#455a64"></path><path d="M212.74,317.23c-.09,0-.15-1.43-.56-3.69a32.39,32.39,0,0,0-7.82-15.91c-1.55-1.71-2.65-2.63-2.59-2.7a3.44,3.44,0,0,1,.83.58,20.81,20.81,0,0,1,2,1.87,29.36,29.36,0,0,1,7.92,16.1,21.38,21.38,0,0,1,.24,2.74A3.48,3.48,0,0,1,212.74,317.23Z" style="fill:#455a64"></path><path d="M230.68,336.58a1.14,1.14,0,0,1,0,.3c0,.23-.08.52-.13.89-.14.81-.32,2-.57,3.4-.51,3-1.25,7.23-2.17,12.47-1.88,10.56-4.48,25.08-7.35,41.13s-5.58,30.55-7.51,41.1c-1,5.23-1.77,9.47-2.33,12.45l-.66,3.38-.19.87a1.1,1.1,0,0,1-.08.3,1.2,1.2,0,0,1,0-.31c0-.23.08-.52.14-.88.13-.81.32-1.95.56-3.4.52-3,1.26-7.23,2.17-12.47l7.36-41.14c2.92-16,5.58-30.55,7.5-41.1,1-5.22,1.78-9.47,2.34-12.44l.66-3.38c.07-.36.13-.65.18-.88A1.94,1.94,0,0,1,230.68,336.58Z" style="fill:#455a64"></path><path d="M323.51,189.8l-25.2,55.13s-13.06,35.72-14.05,40.16-14,60.86-14,60.86l8.62,83.53s1.1,29.07,9.42,31.54,71.16-8.13,71.16-8.13l-10.35-69.73s-3.95-53.47-3.95-54.21,11.34-79.84,11.34-79.84l7.5-30.53-21.3-8.64Z" style="fill:#263238"></path><path d="M274.51,332.47a2.09,2.09,0,0,1,.15-.38l.48-1.15c.47-1,1.13-2.45,2-4.3l7.43-15.76c6.36-13.3,15.12-31.62,24.81-51.86,7.45-15.45,14.36-29.79,20-41.46l.19.3-8.45,0h-.67l.57-.35c3.14-2,6-3.72,8.46-5.28l-.07.14c-.21-5.31-.38-9.51-.5-12.41-.05-1.42-.09-2.52-.11-3.29l0-.85a1.29,1.29,0,0,1,0-.29,2.25,2.25,0,0,1,0,.29q0,.31.06.84c.05.78.11,1.87.2,3.29.15,2.9.37,7.1.65,12.4v.09l-.08.05c-2.49,1.59-5.29,3.36-8.43,5.34l-.1-.35,8.45,0h.34l-.15.3c-5.61,11.69-12.49,26-19.92,41.51C290.45,299.43,275.75,329.9,274.51,332.47Z" style="fill:#455a64"></path><path d="M336.45,269.91a5.9,5.9,0,0,1-1.18,0c-.75-.06-1.84-.12-3.18-.18a82.15,82.15,0,0,0-20.91,1.66c-1.32.27-2.38.51-3.12.68a4.57,4.57,0,0,1-1.15.21,5.71,5.71,0,0,1,1.1-.4c.72-.24,1.78-.53,3.09-.85a69.63,69.63,0,0,1,10.44-1.66,68.54,68.54,0,0,1,10.57,0c1.35.11,2.44.23,3.18.35A4.7,4.7,0,0,1,336.45,269.91Z" style="fill:#455a64"></path><path d="M335.06,269.64c3.48.13-.59-10.55-2.19-15.71-.29-1-.82-2.1-1.83-2.2a2.65,2.65,0,0,0-1.72.72c-6.78,5-12.44,11.83-17.52,18.58C311.8,271,327.82,269.37,335.06,269.64Z" style="fill:#e0e0e0"></path><path d="M282.67,349.9a20.26,20.26,0,0,1-9.87,1.29c0-.15,2.23-.18,4.95-.55S282.63,349.76,282.67,349.9Z" style="fill:#455a64"></path><path d="M347.75,383.44c0,.14-7.83,1.42-17.55,2.86s-17.6,2.48-17.62,2.34,7.83-1.42,17.55-2.86S347.73,383.3,347.75,383.44Z" style="fill:#455a64"></path><path d="M310.21,449.78a1.34,1.34,0,0,1-.14-.3c-.1-.23-.22-.52-.37-.89-.33-.81-.79-2-1.37-3.42s-1.32-3.32-2.08-5.46-1.71-4.57-2.6-7.3-1.93-5.68-2.91-8.91-2-6.68-3.05-10.33c-2-7.31-4-15.41-5.73-24s-3-16.83-4-24.35c-.44-3.77-.89-7.34-1.18-10.7s-.57-6.49-.76-9.35-.31-5.46-.42-7.73-.17-4.24-.19-5.84-.05-2.81-.06-3.69c0-.4,0-.72,0-1a2.06,2.06,0,0,1,0-.33,1.68,1.68,0,0,1,0,.33c0,.24,0,.56,0,1l.16,3.68c.05,1.6.13,3.56.28,5.83s.25,4.87.5,7.72.46,6,.82,9.33.77,6.93,1.23,10.69c1,7.5,2.31,15.73,4,24.31s3.71,16.65,5.68,24c1,3.65,2,7.12,3,10.33s1.94,6.21,2.85,8.93,1.77,5.16,2.52,7.31,1.42,4,2,5.48l1.29,3.47c.13.37.23.67.32.9A1.24,1.24,0,0,1,310.21,449.78Z" style="fill:#455a64"></path><path d="M359.42,452.89a4,4,0,0,1-.45.08l-1.3.2-5,.73-18.49,2.55-27.45,3.73-7.93,1.07-4.1.55a15.06,15.06,0,0,1-4.26.22,9.06,9.06,0,0,1-6.87-5.08,11.15,11.15,0,0,1-.7-2.14l-.54-2.15c-.36-1.45-.74-2.9-1-4.38a254.45,254.45,0,0,1-4.55-33.61c-.82-10.4-1.39-19.77-2.06-27.62s-1.4-14.19-2-18.56c-.3-2.18-.58-3.87-.74-5-.07-.56-.13-1-.18-1.31a3.68,3.68,0,0,1,0-.45s0,.15.09.44l.24,1.3c.19,1.15.5,2.83.83,5,.65,4.37,1.45,10.7,2.15,18.56s1.32,17.22,2.16,27.61a261.79,261.79,0,0,0,4.59,33.54c.28,1.48.66,2.92,1,4.36a28.79,28.79,0,0,0,1.2,4.2,8.59,8.59,0,0,0,6.48,4.8,14.7,14.7,0,0,0,4.12-.22l4.1-.55,7.93-1.05,27.46-3.61,18.51-2.4,5-.62,1.32-.15C359.26,452.89,359.42,452.89,359.42,452.89Z" style="fill:#455a64"></path><polygon points="276.31 210.05 277.39 222.72 288.44 227.24 301.29 214.75 292.78 210.05 286.44 210.05 280.83 208.06 276.31 210.05" style="fill:#DC4300"></polygon><path d="M277.39,222.72s-34,88.45-38.75,130.07h0l13.84,30.65,14.77-21.74L288.8,225.37Z" style="fill:#DC4300"></path><path d="M288.41,227.62a30.36,30.36,0,0,0-5.24-2.88,31,31,0,0,0-5.84-1.3,13.48,13.48,0,0,1,11.08,4.18Z" style="fill:#263238"></path><path d="M293.34,210.08a11.28,11.28,0,0,1-1.87,2.12,42.31,42.31,0,0,1-5.24,4.36,41.59,41.59,0,0,1-5.88,3.47,11.75,11.75,0,0,1-2.62,1.05,22,22,0,0,1,2.46-1.38,60.49,60.49,0,0,0,5.74-3.56,63,63,0,0,0,5.28-4.21A22.6,22.6,0,0,1,293.34,210.08Z" style="fill:#263238"></path><path d="M287.36,226.57a2.13,2.13,0,0,1-.06.41c-.06.29-.13.68-.23,1.19l-.93,4.58c-.8,4-2,9.74-3.35,16.87-2.75,14.25-6.27,34-9.43,55.93-1.59,11-2.93,21.43-4.07,31-.57,4.76-1.14,9.3-1.92,13.5a81.77,81.77,0,0,1-2.91,11.53,48.58,48.58,0,0,1-8.07,15.15,28.39,28.39,0,0,1-4.42,4.5,1.7,1.7,0,0,1,.29-.3l.87-.84a41.77,41.77,0,0,0,3.1-3.49,49.62,49.62,0,0,0,7.88-15.13A82.19,82.19,0,0,0,266.94,350c.76-4.2,1.32-8.72,1.88-13.49,1.11-9.54,2.43-20,4-31,3.16-21.94,6.73-41.69,9.58-55.93,1.42-7.12,2.65-12.87,3.51-16.84.44-2,.79-3.49,1-4.56l.28-1.19A1.63,1.63,0,0,1,287.36,226.57Z" style="fill:#263238"></path><path d="M277.35,277.21a28.06,28.06,0,0,1-1.74-2.94c-1-1.83-2.49-4.35-4.16-7.09s-3.27-5.18-4.44-6.93a25.33,25.33,0,0,1-1.82-2.89s.24.22.61.68.89,1.14,1.51,2c1.25,1.7,2.89,4.12,4.58,6.87s3.09,5.31,4,7.19c.48.94.86,1.71,1.1,2.25S277.39,277.19,277.35,277.21Z" style="fill:#fafafa"></path><path d="M271,315.81a6.79,6.79,0,0,1-.63-1.17c-.42-.86-.95-1.95-1.57-3.25-1.33-2.75-3.16-6.54-5.26-10.69s-4.08-7.88-5.51-10.57l-1.7-3.19a6.53,6.53,0,0,1-.56-1.21,7.53,7.53,0,0,1,.74,1.11c.45.72,1.08,1.79,1.84,3.11,1.52,2.65,3.54,6.35,5.65,10.51s3.89,8,5.13,10.77c.62,1.4,1.1,2.54,1.42,3.33A6.07,6.07,0,0,1,271,315.81Z" style="fill:#fafafa"></path><path d="M266.83,350c-.12.08-4.7-7.14-10.22-16.12s-9.9-16.32-9.78-16.39,4.7,7.14,10.22,16.12S267,349.91,266.83,350Z" style="fill:#fafafa"></path><path d="M258.74,373.55c-.12.08-4.39-5.95-9.54-13.46s-9.23-13.67-9.11-13.76,4.39,5.95,9.54,13.47S258.86,373.47,258.74,373.55Z" style="fill:#fafafa"></path><path d="M281.69,253.2a13,13,0,0,1-1.64-1.83c-1.09-1.3-2.38-2.82-3.79-4.51l-3.88-4.44a13.22,13.22,0,0,1-1.55-1.89,10.59,10.59,0,0,1,1.82,1.64c1.07,1.07,2.5,2.6,4,4.36s2.8,3.4,3.69,4.62A11,11,0,0,1,281.69,253.2Z" style="fill:#fafafa"></path><path d="M279.1,229.31c-.14.06-.53-.56-1.19-1.14s-1.32-.9-1.28-1,.87,0,1.62.65S279.23,229.27,279.1,229.31Z" style="fill:#fafafa"></path><path d="M280.5,232.56c-.11.11-.57-.19-1-.66s-.77-.94-.67-1,.57.2,1,.67S280.6,232.46,280.5,232.56Z" style="fill:#fafafa"></path><path d="M285.62,236.58a10.13,10.13,0,0,1-2.35-2.07,9.56,9.56,0,0,1-2-2.43,19,19,0,0,1,4.33,4.5Z" style="fill:#fafafa"></path><path d="M286.05,215.84c-.1.12-1.89-1.42-4.41-2.83s-4.74-2.17-4.69-2.32a17.27,17.27,0,0,1,9.1,5.15Z" style="fill:#fafafa"></path><path d="M295.51,220c-.14.08-1.18-1.47-2.75-3.13s-3.05-2.8-3-2.93a13.25,13.25,0,0,1,5.72,6.06Z" style="fill:#fafafa"></path><path d="M277.41,235.67a36.93,36.93,0,0,1,1.91-5.93,37.22,37.22,0,0,1,2.41-5.74,39,39,0,0,1-1.92,5.93A37.83,37.83,0,0,1,277.41,235.67Z" style="fill:#263238"></path><path d="M278.71,243.34a13.15,13.15,0,0,1,.41-2.7c.32-1.66.83-3.93,1.48-6.42s1.3-4.73,1.82-6.33a12.69,12.69,0,0,1,1-2.56,15.8,15.8,0,0,1-.6,2.66c-.48,1.8-1,4-1.68,6.36s-1.17,4.57-1.63,6.37A14.7,14.7,0,0,1,278.71,243.34Z" style="fill:#263238"></path><g style="opacity:0.30000000000000004"><path d="M278.42,223.66l0,.12c.63.17,1,.35,1,1a4.62,4.62,0,0,1-.4,1.89c-.67,1.85-1.33,3.7-2,5.56-.17.47-.27,1.14.19,1.35s.85-.22,1.13-.59l2.32-3.11c-.36,1.78-.73,3.57-1.1,5.35-.11.53-.18,1.19.26,1.52a1,1,0,0,0,1.21-.15,2.86,2.86,0,0,0,.66-1.13c.54-1.36,1.08-2.71,1.61-4.06a11.55,11.55,0,0,1,1.38-2.74,4,4,0,0,1,2.49-1.66C284.64,224.74,281.79,224.11,278.42,223.66Z"></path></g><path d="M271.52,198.78a1.29,1.29,0,0,1,.07.35l.12,1c.1,1,.24,2.27.41,3.93.32,3.46.78,8.32,1.33,14.17l-.42-.06,3.05-8.25,0-.09.1-.05,4.52-2,.09,0,.1,0,5.61,2h6.32l0,0L305,216.49l-.3.06,11.07-14.05,3.18-4,.86-1a2.12,2.12,0,0,1,.32-.34,2.83,2.83,0,0,1-.26.39c-.2.28-.47.64-.8,1.08L316,202.68c-2.69,3.5-6.47,8.39-10.92,14.16L305,217l-.18-.1-12.13-6.62.12,0H286.4l0,0-5.61-2h.19l-4.53,2,.13-.14c-1.11,2.94-2.15,5.72-3.1,8.24l-.34.91-.08-1c-.48-5.86-.87-10.73-1.16-14.18-.12-1.67-.21-3-.28-3.95,0-.43-.05-.77-.06-1A1.63,1.63,0,0,1,271.52,198.78Z" style="fill:#263238"></path><path d="M204.33,479.38c-.55-2.21,15.58-83.58,15.58-83.58l86.39-12.36s35.06,21.35,36.16,39,9.25,56.91,9.25,56.91h-83.6L265.47,476l-1.7,3.14Z" style="fill:#263238"></path><path d="M272.24,463.19s0,.05,0,.15a2.17,2.17,0,0,1-.1.42,3.51,3.51,0,0,1-.89,1.41,4.92,4.92,0,0,1-2.3,1.29,5.14,5.14,0,0,1-3.46-.36,7.68,7.68,0,0,1-3.17-2.81,13.07,13.07,0,0,1-1.78-4.51c-.36-1.67-.56-3.43-.83-5.25s-.52-3.7-.79-5.63c-1-7.69-2-14.65-2.66-19.78-.31-2.48-.56-4.51-.75-6-.07-.66-.13-1.2-.18-1.63a2.32,2.32,0,0,1,0-.58,3.34,3.34,0,0,1,.13.56l.27,1.62c.23,1.49.54,3.51.91,6,.73,5.12,1.72,12.08,2.82,19.76q.4,2.9.78,5.63c.26,1.82.45,3.59.79,5.22a12.89,12.89,0,0,0,1.67,4.38,7.6,7.6,0,0,0,3,2.71,4.8,4.8,0,0,0,3.25.4A4.67,4.67,0,0,0,271.1,465,4.23,4.23,0,0,0,272.24,463.19Z" style="fill:#455a64"></path><path d="M265,414.26a1.53,1.53,0,0,1,.94-.14,3.34,3.34,0,0,1,2.29,1.23,3.78,3.78,0,0,1,.42,3.8,4.36,4.36,0,0,1-3.83,2.65,3.83,3.83,0,0,1-2.43-.69,4.05,4.05,0,0,1-1.43-1.85,3.63,3.63,0,0,1-.18-2.12,3.35,3.35,0,0,1,.88-1.62,3.75,3.75,0,0,1,2.34-1.14,1.8,1.8,0,0,1,.94.12c0,.05-.34,0-.92.09a3.73,3.73,0,0,0-2.09,1.18,3.12,3.12,0,0,0-.53,3.31,3.47,3.47,0,0,0,3.39,2.2,3.93,3.93,0,0,0,3.42-2.32,3.4,3.4,0,0,0-.28-3.38,3.18,3.18,0,0,0-2-1.26C265.36,414.22,265,414.31,265,414.26Z" style="fill:#455a64"></path><path d="M321,185.25H275.4l-5.07,13.42-28.92,39.65L218.69,402l28.92,5.35a54,54,0,0,0,15.23.64l43.46-4.29,1.3-146L328.77,199Z" style="fill:#f5f5f5"></path><path d="M286.35,214s0,.17-.12.49-.23.82-.41,1.44c-.38,1.28-.92,3.13-1.62,5.5s-1.59,5.31-2.55,8.72-2.1,7.27-3.24,11.58-2.45,9-3.72,14.09-2.61,10.51-4,16.23c-2.68,11.48-5.42,24.13-8,37.48s-4.6,26.15-6.31,37.81c-.81,5.83-1.61,11.37-2.22,16.58s-1.22,10-1.7,14.47-.87,8.44-1.22,12-.62,6.56-.83,9-.38,4.39-.5,5.72c-.06.63-.11,1.13-.14,1.48s-.07.51-.07.51a4.88,4.88,0,0,1,0-.51c0-.36.06-.85.09-1.49.1-1.33.24-3.26.41-5.72s.4-5.53.74-9.06.65-7.54,1.14-12,1-9.29,1.64-14.49,1.38-10.75,2.18-16.59c1.68-11.67,3.75-24.46,6.27-37.83s5.31-26,8-37.5c1.4-5.72,2.7-11.17,4-16.23s2.59-9.79,3.79-14.08,2.33-8.16,3.31-11.56,1.88-6.32,2.63-8.7l1.72-5.47.46-1.42Z" style="fill:#263238"></path><path d="M231.84,389.07a39.55,39.55,0,0,0,.95,8.41,38.77,38.77,0,0,0,3.27,7.82,8.55,8.55,0,0,1-1.47-2.05,22.87,22.87,0,0,1-3-11.68A8.56,8.56,0,0,1,231.84,389.07Z" style="fill:#263238"></path><path d="M234.4,405.92a4.68,4.68,0,0,1-1.67-.8,15.44,15.44,0,0,1-5.79-6.64,4.85,4.85,0,0,1-.57-1.76,22.44,22.44,0,0,0,8,9.2Z" style="fill:#263238"></path><path d="M269.59,390.51a8.64,8.64,0,0,1,.18,2.56,27.85,27.85,0,0,1-.81,6.13,27,27,0,0,1-2.14,5.81,9,9,0,0,1-1.34,2.18,21.74,21.74,0,0,1,1-2.34,35,35,0,0,0,2.91-11.8A20,20,0,0,1,269.59,390.51Z" style="fill:#263238"></path><path d="M271.52,195.51s-27.85,11.78-31.86,12.55-18,4.28-18,4.28-10.78,19.3-9.78,30.34,8.53,90.25,8.53,90.25-12.29,68.44-12.54,73.46S197,459.29,199.05,459s11.28-10.53,11.28-10.53l30.59-168.23s8-38.61,14-51.14,16.56-28.83,16.56-28.83Z" style="fill:#263238"></path><path d="M230.68,336.58a2.59,2.59,0,0,1,0-.4c0-.28,0-.67-.06-1.16-.05-1-.12-2.54-.2-4.45-.15-3.9-.35-9.5-.6-16.4s-.49-15.18-.7-24.34c-.1-4.58-.2-9.38-.21-14.37a67.68,67.68,0,0,1,2.53-15.25c2.19-8.47,4.94-16.41,7.59-23.75s5.33-14.06,7.8-20l0,0,0,0q4.22-3.53,7.73-6.47l.18.3-5.69,2.23-.52.2.35-.43,6.43-8.12c.74-.92,1.31-1.64,1.72-2.14l.45-.55c.1-.12.16-.18.16-.17a1.08,1.08,0,0,1-.13.2l-.42.57-1.66,2.18-6.32,8.21-.17-.23,5.67-2.27,1-.41-.83.7-7.69,6.52.06-.08c-2.44,5.91-5.08,12.63-7.73,20s-5.36,15.28-7.54,23.72a67.23,67.23,0,0,0-2.53,15.12c0,5,.1,9.79.18,14.36.22,9.16.42,17.4.59,24.34s.33,12.5.43,16.4c0,1.91.08,3.41.1,4.46,0,.49,0,.88,0,1.16A2.47,2.47,0,0,1,230.68,336.58Z" style="fill:#455a64"></path><path d="M221.61,212.34s-9.18,7-10.75,14.9-3.92,41.34-3.92,41.34S203,273,203,273.8s-1.89,21.77-1.89,21.77l-29.46-37-26.76,25.27s34.71,60.69,48.45,66.08c20.92,8.21,27.17-3.7,27.17-3.7l3.14-48.87Z" style="fill:#263238"></path><path d="M214.81,245.65a1,1,0,0,1,.06.27c0,.21.08.47.13.79l.45,3.06c.38,2.65.91,6.49,1.53,11.24,1.22,9.5,2.82,22.65,3.67,37.25.4,7.31.53,14.28.45,20.62-.08,3.17-.13,6.18-.32,9-.09,1.41-.14,2.77-.25,4.08s-.22,2.55-.33,3.74c-.18,2.4-.49,4.54-.71,6.43-.12.95-.23,1.82-.34,2.64s-.25,1.53-.35,2.2c-.22,1.29-.39,2.31-.52,3-.06.32-.11.58-.14.79s-.06.27-.07.26a1.37,1.37,0,0,1,0-.27c0-.21.06-.47.1-.8.1-.73.24-1.76.42-3.05.09-.67.19-1.41.31-2.21s.19-1.69.29-2.63c.2-1.89.48-4,.64-6.43.09-1.19.19-2.44.29-3.74s.14-2.66.21-4.07c.18-2.81.21-5.81.28-9,.06-6.32-.09-13.28-.49-20.58-.85-14.58-2.39-27.73-3.52-37.24-.57-4.72-1-8.56-1.36-11.26-.15-1.3-.26-2.32-.35-3.06,0-.33-.06-.59-.08-.8A1.49,1.49,0,0,1,214.81,245.65Z" style="fill:#455a64"></path><path d="M209.42,324.6a5.12,5.12,0,0,1-.13-1.19c0-.76-.13-1.87-.27-3.23a64.09,64.09,0,0,0-2-10.47,63.08,63.08,0,0,0-3.75-10c-.58-1.24-1.08-2.23-1.44-2.9a5.31,5.31,0,0,1-.5-1.09,5.15,5.15,0,0,1,.68,1c.41.64,1,1.61,1.59,2.83a53.53,53.53,0,0,1,5.76,20.59c.1,1.37.13,2.48.11,3.25A5,5,0,0,1,209.42,324.6Z" style="fill:#455a64"></path><path d="M212.74,317.23c-.09,0-.15-1.43-.56-3.69a32.39,32.39,0,0,0-7.82-15.91c-1.55-1.71-2.65-2.63-2.59-2.7a3.44,3.44,0,0,1,.83.58,20.81,20.81,0,0,1,2,1.87,29.36,29.36,0,0,1,7.92,16.1,21.38,21.38,0,0,1,.24,2.74A3.48,3.48,0,0,1,212.74,317.23Z" style="fill:#455a64"></path><path d="M230.68,336.58a1.14,1.14,0,0,1,0,.3c0,.23-.08.52-.13.89-.14.81-.32,2-.57,3.4-.51,3-1.25,7.23-2.17,12.47-1.88,10.56-4.48,25.08-7.35,41.13s-5.58,30.55-7.51,41.1c-1,5.23-1.77,9.47-2.33,12.45l-.66,3.38-.19.87a1.1,1.1,0,0,1-.08.3,1.2,1.2,0,0,1,0-.31c0-.23.08-.52.14-.88.13-.81.32-1.95.56-3.4.52-3,1.26-7.23,2.17-12.47l7.36-41.14c2.92-16,5.58-30.55,7.5-41.1,1-5.22,1.78-9.47,2.34-12.44l.66-3.38c.07-.36.13-.65.18-.88A1.94,1.94,0,0,1,230.68,336.58Z" style="fill:#455a64"></path><path d="M323.51,189.8l-25.2,55.13s-13.06,35.72-14.05,40.16-14,60.86-14,60.86l8.62,83.53s1.1,29.07,9.42,31.54,71.16-8.13,71.16-8.13l-10.35-69.73s-3.95-53.47-3.95-54.21,11.34-79.84,11.34-79.84l7.5-30.53-21.3-8.64Z" style="fill:#263238"></path><path d="M274.51,332.47a2.09,2.09,0,0,1,.15-.38l.48-1.15c.47-1,1.13-2.45,2-4.3l7.43-15.76c6.36-13.3,15.12-31.62,24.81-51.86,7.45-15.45,14.36-29.79,20-41.46l.19.3-8.45,0h-.67l.57-.35c3.14-2,6-3.72,8.46-5.28l-.07.14c-.21-5.31-.38-9.51-.5-12.41-.05-1.42-.09-2.52-.11-3.29l0-.85a1.29,1.29,0,0,1,0-.29,2.25,2.25,0,0,1,0,.29q0,.31.06.84c.05.78.11,1.87.2,3.29.15,2.9.37,7.1.65,12.4v.09l-.08.05c-2.49,1.59-5.29,3.36-8.43,5.34l-.1-.35,8.45,0h.34l-.15.3c-5.61,11.69-12.49,26-19.92,41.51C290.45,299.43,275.75,329.9,274.51,332.47Z" style="fill:#455a64"></path><path d="M336.45,269.91a5.9,5.9,0,0,1-1.18,0c-.75-.06-1.84-.12-3.18-.18a82.15,82.15,0,0,0-20.91,1.66c-1.32.27-2.38.51-3.12.68a4.57,4.57,0,0,1-1.15.21,5.71,5.71,0,0,1,1.1-.4c.72-.24,1.78-.53,3.09-.85a69.63,69.63,0,0,1,10.44-1.66,68.54,68.54,0,0,1,10.57,0c1.35.11,2.44.23,3.18.35A4.7,4.7,0,0,1,336.45,269.91Z" style="fill:#455a64"></path><path d="M335.06,269.64c3.48.13-.59-10.55-2.19-15.71-.29-1-.82-2.1-1.83-2.2a2.65,2.65,0,0,0-1.72.72c-6.78,5-12.44,11.83-17.52,18.58C311.8,271,327.82,269.37,335.06,269.64Z" style="fill:#e0e0e0"></path><path d="M282.67,349.9a20.26,20.26,0,0,1-9.87,1.29c0-.15,2.23-.18,4.95-.55S282.63,349.76,282.67,349.9Z" style="fill:#455a64"></path><path d="M347.75,383.44c0,.14-7.83,1.42-17.55,2.86s-17.6,2.48-17.62,2.34,7.83-1.42,17.55-2.86S347.73,383.3,347.75,383.44Z" style="fill:#455a64"></path><path d="M310.21,449.78a1.34,1.34,0,0,1-.14-.3c-.1-.23-.22-.52-.37-.89-.33-.81-.79-2-1.37-3.42s-1.32-3.32-2.08-5.46-1.71-4.57-2.6-7.3-1.93-5.68-2.91-8.91-2-6.68-3.05-10.33c-2-7.31-4-15.41-5.73-24s-3-16.83-4-24.35c-.44-3.77-.89-7.34-1.18-10.7s-.57-6.49-.76-9.35-.31-5.46-.42-7.73-.17-4.24-.19-5.84-.05-2.81-.06-3.69c0-.4,0-.72,0-1a2.06,2.06,0,0,1,0-.33,1.68,1.68,0,0,1,0,.33c0,.24,0,.56,0,1l.16,3.68c.05,1.6.13,3.56.28,5.83s.25,4.87.5,7.72.46,6,.82,9.33.77,6.93,1.23,10.69c1,7.5,2.31,15.73,4,24.31s3.71,16.65,5.68,24c1,3.65,2,7.12,3,10.33s1.94,6.21,2.85,8.93,1.77,5.16,2.52,7.31,1.42,4,2,5.48l1.29,3.47c.13.37.23.67.32.9A1.24,1.24,0,0,1,310.21,449.78Z" style="fill:#455a64"></path><path d="M359.42,452.89a4,4,0,0,1-.45.08l-1.3.2-5,.73-18.49,2.55-27.45,3.73-7.93,1.07-4.1.55a15.06,15.06,0,0,1-4.26.22,9.06,9.06,0,0,1-6.87-5.08,11.15,11.15,0,0,1-.7-2.14l-.54-2.15c-.36-1.45-.74-2.9-1-4.38a254.45,254.45,0,0,1-4.55-33.61c-.82-10.4-1.39-19.77-2.06-27.62s-1.4-14.19-2-18.56c-.3-2.18-.58-3.87-.74-5-.07-.56-.13-1-.18-1.31a3.68,3.68,0,0,1,0-.45s0,.15.09.44l.24,1.3c.19,1.15.5,2.83.83,5,.65,4.37,1.45,10.7,2.15,18.56s1.32,17.22,2.16,27.61a261.79,261.79,0,0,0,4.59,33.54c.28,1.48.66,2.92,1,4.36a28.79,28.79,0,0,0,1.2,4.2,8.59,8.59,0,0,0,6.48,4.8,14.7,14.7,0,0,0,4.12-.22l4.1-.55,7.93-1.05,27.46-3.61,18.51-2.4,5-.62,1.32-.15C359.26,452.89,359.42,452.89,359.42,452.89Z" style="fill:#455a64"></path><polygon points="276.31 210.05 277.39 222.72 288.44 227.24 301.29 214.75 292.78 210.05 286.44 210.05 280.83 208.06 276.31 210.05" style="fill:#DC4300"></polygon><path d="M277.39,222.72s-34,88.45-38.75,130.07h0l13.84,30.65,14.77-21.74L288.8,225.37Z" style="fill:#DC4300"></path><path d="M288.41,227.62a30.36,30.36,0,0,0-5.24-2.88,31,31,0,0,0-5.84-1.3,13.48,13.48,0,0,1,11.08,4.18Z" style="fill:#263238"></path><path d="M293.34,210.08a11.28,11.28,0,0,1-1.87,2.12,42.31,42.31,0,0,1-5.24,4.36,41.59,41.59,0,0,1-5.88,3.47,11.75,11.75,0,0,1-2.62,1.05,22,22,0,0,1,2.46-1.38,60.49,60.49,0,0,0,5.74-3.56,63,63,0,0,0,5.28-4.21A22.6,22.6,0,0,1,293.34,210.08Z" style="fill:#263238"></path><path d="M287.36,226.57a2.13,2.13,0,0,1-.06.41c-.06.29-.13.68-.23,1.19l-.93,4.58c-.8,4-2,9.74-3.35,16.87-2.75,14.25-6.27,34-9.43,55.93-1.59,11-2.93,21.43-4.07,31-.57,4.76-1.14,9.3-1.92,13.5a81.77,81.77,0,0,1-2.91,11.53,48.58,48.58,0,0,1-8.07,15.15,28.39,28.39,0,0,1-4.42,4.5,1.7,1.7,0,0,1,.29-.3l.87-.84a41.77,41.77,0,0,0,3.1-3.49,49.62,49.62,0,0,0,7.88-15.13A82.19,82.19,0,0,0,266.94,350c.76-4.2,1.32-8.72,1.88-13.49,1.11-9.54,2.43-20,4-31,3.16-21.94,6.73-41.69,9.58-55.93,1.42-7.12,2.65-12.87,3.51-16.84.44-2,.79-3.49,1-4.56l.28-1.19A1.63,1.63,0,0,1,287.36,226.57Z" style="fill:#263238"></path><path d="M277.35,277.21a28.06,28.06,0,0,1-1.74-2.94c-1-1.83-2.49-4.35-4.16-7.09s-3.27-5.18-4.44-6.93a25.33,25.33,0,0,1-1.82-2.89s.24.22.61.68.89,1.14,1.51,2c1.25,1.7,2.89,4.12,4.58,6.87s3.09,5.31,4,7.19c.48.94.86,1.71,1.1,2.25S277.39,277.19,277.35,277.21Z" style="fill:#fafafa"></path><path d="M271,315.81a6.79,6.79,0,0,1-.63-1.17c-.42-.86-.95-1.95-1.57-3.25-1.33-2.75-3.16-6.54-5.26-10.69s-4.08-7.88-5.51-10.57l-1.7-3.19a6.53,6.53,0,0,1-.56-1.21,7.53,7.53,0,0,1,.74,1.11c.45.72,1.08,1.79,1.84,3.11,1.52,2.65,3.54,6.35,5.65,10.51s3.89,8,5.13,10.77c.62,1.4,1.1,2.54,1.42,3.33A6.07,6.07,0,0,1,271,315.81Z" style="fill:#fafafa"></path><path d="M266.83,350c-.12.08-4.7-7.14-10.22-16.12s-9.9-16.32-9.78-16.39,4.7,7.14,10.22,16.12S267,349.91,266.83,350Z" style="fill:#fafafa"></path><path d="M258.74,373.55c-.12.08-4.39-5.95-9.54-13.46s-9.23-13.67-9.11-13.76,4.39,5.95,9.54,13.47S258.86,373.47,258.74,373.55Z" style="fill:#fafafa"></path><path d="M281.69,253.2a13,13,0,0,1-1.64-1.83c-1.09-1.3-2.38-2.82-3.79-4.51l-3.88-4.44a13.22,13.22,0,0,1-1.55-1.89,10.59,10.59,0,0,1,1.82,1.64c1.07,1.07,2.5,2.6,4,4.36s2.8,3.4,3.69,4.62A11,11,0,0,1,281.69,253.2Z" style="fill:#fafafa"></path><path d="M279.1,229.31c-.14.06-.53-.56-1.19-1.14s-1.32-.9-1.28-1,.87,0,1.62.65S279.23,229.27,279.1,229.31Z" style="fill:#fafafa"></path><path d="M280.5,232.56c-.11.11-.57-.19-1-.66s-.77-.94-.67-1,.57.2,1,.67S280.6,232.46,280.5,232.56Z" style="fill:#fafafa"></path><path d="M285.62,236.58a10.13,10.13,0,0,1-2.35-2.07,9.56,9.56,0,0,1-2-2.43,19,19,0,0,1,4.33,4.5Z" style="fill:#fafafa"></path><path d="M286.05,215.84c-.1.12-1.89-1.42-4.41-2.83s-4.74-2.17-4.69-2.32a17.27,17.27,0,0,1,9.1,5.15Z" style="fill:#fafafa"></path><path d="M295.51,220c-.14.08-1.18-1.47-2.75-3.13s-3.05-2.8-3-2.93a13.25,13.25,0,0,1,5.72,6.06Z" style="fill:#fafafa"></path><path d="M277.41,235.67a36.93,36.93,0,0,1,1.91-5.93,37.22,37.22,0,0,1,2.41-5.74,39,39,0,0,1-1.92,5.93A37.83,37.83,0,0,1,277.41,235.67Z" style="fill:#263238"></path><path d="M278.71,243.34a13.15,13.15,0,0,1,.41-2.7c.32-1.66.83-3.93,1.48-6.42s1.3-4.73,1.82-6.33a12.69,12.69,0,0,1,1-2.56,15.8,15.8,0,0,1-.6,2.66c-.48,1.8-1,4-1.68,6.36s-1.17,4.57-1.63,6.37A14.7,14.7,0,0,1,278.71,243.34Z" style="fill:#263238"></path><g style="opacity:0.30000000000000004"><path d="M278.42,223.66l0,.12c.63.17,1,.35,1,1a4.62,4.62,0,0,1-.4,1.89c-.67,1.85-1.33,3.7-2,5.56-.17.47-.27,1.14.19,1.35s.85-.22,1.13-.59l2.32-3.11c-.36,1.78-.73,3.57-1.1,5.35-.11.53-.18,1.19.26,1.52a1,1,0,0,0,1.21-.15,2.86,2.86,0,0,0,.66-1.13c.54-1.36,1.08-2.71,1.61-4.06a11.55,11.55,0,0,1,1.38-2.74,4,4,0,0,1,2.49-1.66C284.64,224.74,281.79,224.11,278.42,223.66Z"></path></g><path d="M271.52,198.78a1.29,1.29,0,0,1,.07.35l.12,1c.1,1,.24,2.27.41,3.93.32,3.46.78,8.32,1.33,14.17l-.42-.06,3.05-8.25,0-.09.1-.05,4.52-2,.09,0,.1,0,5.61,2h6.32l0,0L305,216.49l-.3.06,11.07-14.05,3.18-4,.86-1a2.12,2.12,0,0,1,.32-.34,2.83,2.83,0,0,1-.26.39c-.2.28-.47.64-.8,1.08L316,202.68c-2.69,3.5-6.47,8.39-10.92,14.16L305,217l-.18-.1-12.13-6.62.12,0H286.4l0,0-5.61-2h.19l-4.53,2,.13-.14c-1.11,2.94-2.15,5.72-3.1,8.24l-.34.91-.08-1c-.48-5.86-.87-10.73-1.16-14.18-.12-1.67-.21-3-.28-3.95,0-.43-.05-.77-.06-1A1.63,1.63,0,0,1,271.52,198.78Z" style="fill:#263238"></path><path d="M255.4,122.74a8.61,8.61,0,0,1-4.27-13.58c1-1.21,2.26-2.19,2.88-3.61,1.32-3-1.06-6.56-.47-9.84.55-3,3.47-5,6.36-6.14s6-1.68,8.52-3.5c2.29-1.67,3.78-4.23,5.94-6.06a12.41,12.41,0,0,1,11.17-2.41c3.91,1.11,7.2,4.16,11.24,4.61,3,.34,5.86-.76,8.82-.95a14.77,14.77,0,0,1,14.81,11c.67,2.87,1.32,5.37,3.18,7.67,2.41,3,6.57,4,8.47,7.33,1.12,2,.76,4.48.1,6.67s-1.62,4.36-1.59,6.64a8.12,8.12,0,0,0,6.32,7.61,8.15,8.15,0,0,1-4.2,5,9.41,9.41,0,0,0,5,1.16,16.38,16.38,0,0,1-21.76,9.76" style="fill:#e0e0e0"></path><path d="M320.33,137.26c.32-.15,13.06-4.11,12.87,9s-13.27,10.19-13.29,9.81S320.33,137.26,320.33,137.26Z" style="fill:#e5ab91"></path><path d="M324,151.14s.22.16.6.34a2.29,2.29,0,0,0,1.7.06c1.39-.49,2.59-2.66,2.68-5a7.37,7.37,0,0,0-.59-3.27,2.61,2.61,0,0,0-1.68-1.77,1.18,1.18,0,0,0-1.36.6c-.18.37-.1.63-.17.65s-.27-.22-.16-.76a1.4,1.4,0,0,1,.53-.81,1.71,1.71,0,0,1,1.26-.32,3.22,3.22,0,0,1,2.35,2.06,7.89,7.89,0,0,1,.74,3.66c-.13,2.63-1.51,5.08-3.41,5.6a2.49,2.49,0,0,1-2.08-.38C324,151.45,323.93,151.16,324,151.14Z" style="fill:#bc8579"></path><path d="M254.12,163.94c-.27-9.23.71-28.27,1.79-45.49a35.62,35.62,0,0,1,34.92-33.38l1.85,0c19.9.82,30.33,18.17,29,38l-1.73,65.62-34.07,21.13-12-9.39,0-14.76S254.69,183,254.12,163.94Z" style="fill:#e5ab91"></path><path d="M273.83,185.67s12.1.77,24.79-7.52c0,0-5.51,14.07-24.61,12.68Z" style="fill:#bc8579"></path><path d="M262.66,131.6a2.73,2.73,0,0,0,2.68,2.71,2.61,2.61,0,0,0,2.77-2.51,2.73,2.73,0,0,0-2.68-2.71A2.62,2.62,0,0,0,262.66,131.6Z" style="fill:#263238"></path><path d="M292.48,131.26a2.73,2.73,0,0,0,2.68,2.7,2.61,2.61,0,0,0,2.77-2.51,2.73,2.73,0,0,0-2.68-2.71A2.62,2.62,0,0,0,292.48,131.26Z" style="fill:#263238"></path><path d="M260,128.55c.34.35,2.38-1.22,5.32-1.26s5.11,1.39,5.43,1c.15-.16-.21-.8-1.16-1.46a7.42,7.42,0,0,0-4.35-1.26A7.17,7.17,0,0,0,261,127C260.14,127.74,259.85,128.39,260,128.55Z" style="fill:#263238"></path><path d="M289.54,127.36c.36.33,2.3-1.37,5.23-1.6s5.19,1.07,5.48.68c.14-.17-.25-.78-1.24-1.39a7.58,7.58,0,0,0-4.43-1,7.22,7.22,0,0,0-4.13,1.71C289.61,126.55,289.36,127.21,289.54,127.36Z" style="fill:#263238"></path><path d="M278.78,149.72c0-.16-1.82-.45-4.78-.77-.75-.07-1.47-.21-1.6-.71a3.8,3.8,0,0,1,.46-2.24l2.12-5.74c2.93-8.19,5-14.91,4.72-15s-3,6.43-5.92,14.61c-.71,2-1.38,3.94-2,5.78a4.35,4.35,0,0,0-.34,2.95,1.88,1.88,0,0,0,1.25,1.08,5.2,5.2,0,0,0,1.28.15C276.93,149.91,278.77,149.89,278.78,149.72Z" style="fill:#263238"></path><path d="M287.46,151.6c-.48,0-.43,3.17-3.12,5.48s-6.09,2-6.1,2.47c0,.2.76.6,2.2.62a8,8,0,0,0,5.1-1.88A6.94,6.94,0,0,0,288,153.7C288.05,152.36,287.68,151.58,287.46,151.6Z" style="fill:#263238"></path><path d="M288.23,114.92c.37.76,3.25.09,6.72.16s6.34.72,6.72,0c.17-.36-.39-1.06-1.59-1.72a11.63,11.63,0,0,0-10.23-.09C288.64,113.86,288.07,114.55,288.23,114.92Z" style="fill:#e0e0e0"></path><path d="M260.43,120.66c.53.66,2.54-.07,5-.14s4.5.37,5-.34c.21-.34-.13-1-1-1.62a6.91,6.91,0,0,0-4.06-1,6.83,6.83,0,0,0-3.94,1.41C260.47,119.65,260.2,120.34,260.43,120.66Z" style="fill:#e0e0e0"></path><path d="M276.79,83.54c6.66-2.9,13.55-1.74,20.76-1a32.84,32.84,0,0,1,15.5,5.53c7.45,5.1,11.35,13.51,12.06,22.51a84.43,84.43,0,0,1-1.89,25.84l-.72-.14c.52,2.19,1,4.5.34,6.64s-3.08,3.89-5.16,3.07c-2.44-1-2.64-4.28-2.52-6.9a187.93,187.93,0,0,0-.85-26.52c-.61-6.58-4.66-14.52-9.92-17.47-11.82-6.55-20.55,0-24.53,1.61-6.54-5.21-13.52-1.85-17.24,3C263.79,92.61,270.13,86.44,276.79,83.54Z" style="fill:#e0e0e0"></path><path d="M329.16,104.56c0,.41-.75.91-2.32,1.15a15.31,15.31,0,0,1-6.55-.74,34.7,34.7,0,0,1-8.49-4.22c-2.9-1.88-5.8-4.07-8.88-5.82a19.72,19.72,0,0,0-8.84-2.88,18.65,18.65,0,0,0-7.56,1.29c-4.25,1.65-6.42,4-7.18,3.45-.18-.12-.23-.4-.15-.83a5.12,5.12,0,0,1,.65-1.7,14.11,14.11,0,0,1,4.61-4.78A18.76,18.76,0,0,1,294,86.34a19.52,19.52,0,0,1,6.1.7A25.86,25.86,0,0,1,306,89.53a74.1,74.1,0,0,1,9.16,6.57,57.26,57.26,0,0,0,6.89,4.84,33.93,33.93,0,0,0,5.05,2.37C328.34,103.79,329.14,104.11,329.16,104.56Z" style="fill:#fff"></path><path d="M329.63,115.21a6.45,6.45,0,0,1-2.48.53,16,16,0,0,1-6.1-.73,15.8,15.8,0,0,1-5.36-3,6.65,6.65,0,0,1-1.7-1.88,22.12,22.12,0,0,1,2,1.54,18.1,18.1,0,0,0,11.16,3.62C328.66,115.28,329.61,115.11,329.63,115.21Z" style="fill:#fff"></path><path d="M335.38,128.3a3.17,3.17,0,0,1-1-.23,25.3,25.3,0,0,1-2.62-.95,41.53,41.53,0,0,1-8-4.43,40.9,40.9,0,0,1-6.84-6.11,25.15,25.15,0,0,1-1.76-2.15,3.21,3.21,0,0,1-.55-.86c.08-.06,1,1.05,2.63,2.71a50.46,50.46,0,0,0,6.88,5.9,51.22,51.22,0,0,0,7.85,4.54A37.37,37.37,0,0,1,335.38,128.3Z" style="fill:#fff"></path><path d="M289.83,80.91c0,.09-1.1.48-2.83,1.29a17.4,17.4,0,0,0-6,4.31,10.62,10.62,0,0,0-2.53,6.74,15.18,15.18,0,0,0,.5,3s-.21-.23-.43-.74a7,7,0,0,1-.51-2.27,10.38,10.38,0,0,1,2.49-7.15,16.08,16.08,0,0,1,6.26-4.31A10,10,0,0,1,289.83,80.91Z" style="fill:#fff"></path><path d="M282.76,76.75c.06.1-1,.71-2.34,2.11a13.6,13.6,0,0,0-3.1,13.92c.62,1.83,1.32,2.84,1.22,2.9s-.24-.21-.55-.67a11.34,11.34,0,0,1-1.08-2.08,13.09,13.09,0,0,1,3.21-14.38A10.57,10.57,0,0,1,282,77.12,2.34,2.34,0,0,1,282.76,76.75Z" style="fill:#fff"></path><path d="M322.54,139.14c0,.16-2.16,0-4.33-1.43s-3.2-3.33-3-3.39,1.33,1.55,3.39,2.87S322.58,139,322.54,139.14Z" style="fill:#fff"></path><path d="M323.32,141.64c0,.15-2.35.31-4.86-1s-3.74-3.37-3.6-3.43,1.51,1.65,3.89,2.88S323.34,141.45,323.32,141.64Z" style="fill:#fff"></path><path d="M261.13,102.67a3.55,3.55,0,0,1-1.73-.6,8.7,8.7,0,0,1-3.12-3.14,8.57,8.57,0,0,1-1.17-4.27,3.41,3.41,0,0,1,.33-1.79,11.16,11.16,0,0,1,.11,1.78,9.9,9.9,0,0,0,1.27,4,9.8,9.8,0,0,0,2.82,3.07C260.53,102.31,261.17,102.57,261.13,102.67Z" style="fill:#fff"></path><path d="M263.08,98.87c-.12.11-1.68-1.46-3-3.81s-1.91-4.48-1.75-4.52,1,1.93,2.29,4.22S263.22,98.75,263.08,98.87Z" style="fill:#fff"></path><path d="M307.19,128a4.37,4.37,0,0,1-2.06,1.29,4.25,4.25,0,0,1-2.39.44,9,9,0,0,1,2.2-.93A9.08,9.08,0,0,1,307.19,128Z" style="fill:#bc8579"></path><path d="M309.25,130.83a15.62,15.62,0,0,1-5.67-.36,8,8,0,0,1,2.85-.08A8.13,8.13,0,0,1,309.25,130.83Z" style="fill:#bc8579"></path><path d="M259.53,132.83c0,.15-.7.27-1.57.28s-1.57-.1-1.57-.25.7-.27,1.57-.27S259.53,132.69,259.53,132.83Z" style="fill:#bc8579"></path><path d="M258.8,131.35c-.08.13-.68-.1-1.34-.5s-1.15-.83-1.07-.95.67.1,1.34.5S258.87,131.23,258.8,131.35Z" style="fill:#bc8579"></path><path d="M289,105.33c0,.08-.92.29-2.35.85s-3.32,1.53-5.51,2.47a15,15,0,0,1-5.93,1.4,7.27,7.27,0,0,1-1.84-.23c-.43-.11-.65-.21-.64-.24s.95.18,2.47.1a16.89,16.89,0,0,0,5.74-1.51c2.15-.93,4.09-1.87,5.59-2.33A7,7,0,0,1,289,105.33Z" style="fill:#bc8579"></path><path d="M285.1,104.89a14.1,14.1,0,0,1-5.81,2,13.72,13.72,0,0,1-6.13-.21,57.71,57.71,0,0,0,6-.3A59.34,59.34,0,0,0,285.1,104.89Z" style="fill:#bc8579"></path><path d="M291.14,152.34c-.13.06-.58-1.06-1.82-1.55a5.62,5.62,0,0,0-2.39-.13c0-.06.19-.27.66-.43a2.85,2.85,0,0,1,3.36,1.34C291.19,152,291.2,152.32,291.14,152.34Z" style="fill:#bc8579"></path><path d="M293.62,151.74c-.14,0-.43-1.2-1.68-2a6,6,0,0,0-2.49-.72c0-.06.27-.23.8-.27a3.4,3.4,0,0,1,2,.55,3.32,3.32,0,0,1,1.3,1.58C293.72,151.4,293.68,151.74,293.62,151.74Z" style="fill:#bc8579"></path><path d="M263.75,140.69a13.35,13.35,0,0,1,1.34-.18,9.72,9.72,0,0,0,3.52-1.25,10.86,10.86,0,0,0,2.09-1.61,10.59,10.59,0,0,0,1.79-2.5,9.59,9.59,0,0,0,1-3.32c.12-1.2,0-2.53.06-3.89l.24.24-12.44,0h-10l.24-.25a30.81,30.81,0,0,0,.13,4.35,9.87,9.87,0,0,0,6.32,7.65,11,11,0,0,0,4.2.66l1.15,0c.27,0,.4,0,.4.05l-.4,0-1.15,0a11,11,0,0,1-4.31-.54,10.12,10.12,0,0,1-6.66-7.87,30.61,30.61,0,0,1-.17-4.42v-.25h10.29l12.44,0H274v.24c0,1.36,0,2.66-.1,3.94a9.76,9.76,0,0,1-1.08,3.45,10,10,0,0,1-4.09,4.18,9.16,9.16,0,0,1-3.64,1.15,6.72,6.72,0,0,1-1,.05A1.35,1.35,0,0,1,263.75,140.69Z" style="fill:#455a64"></path><path d="M295.42,140.69a13.35,13.35,0,0,1,1.34-.18,9.72,9.72,0,0,0,3.52-1.25,10.86,10.86,0,0,0,2.09-1.61,10.59,10.59,0,0,0,1.79-2.5,9.59,9.59,0,0,0,1-3.32c.12-1.2.05-2.53.06-3.89l.24.24-12.44,0H283l.24-.25a30.81,30.81,0,0,0,.13,4.35,9.87,9.87,0,0,0,6.32,7.65,11,11,0,0,0,4.2.66l1.15,0c.27,0,.4,0,.4.05l-.4,0-1.15,0a10.9,10.9,0,0,1-4.3-.54,10.11,10.11,0,0,1-6.67-7.87,30.61,30.61,0,0,1-.17-4.42v-.25H293l12.44,0h.24v.24c0,1.36,0,2.66-.1,3.94a9.76,9.76,0,0,1-1.08,3.45,10,10,0,0,1-4.09,4.18,9.16,9.16,0,0,1-3.64,1.15,6.72,6.72,0,0,1-1,.05A1.35,1.35,0,0,1,295.42,140.69Z" style="fill:#455a64"></path><path d="M282.81,130.94c-.07,0-.4-.46-1.12-1a5.34,5.34,0,0,0-6.61-.15c-.75.54-1.1,1-1.17,1s.2-.61.94-1.26a5.28,5.28,0,0,1,3.57-1.31,5.34,5.34,0,0,1,3.51,1.46C282.64,130.32,282.86,130.91,282.81,130.94Z" style="fill:#455a64"></path><path d="M324.8,135.75a19,19,0,0,1-2.87-.56c-1.75-.39-4.17-.91-6.87-1.41s-5.14-.89-6.92-1.16a17,17,0,0,1-2.87-.51,15.2,15.2,0,0,1,2.92.15c1.79.17,4.26.5,7,1s5.13,1.08,6.86,1.57A15.52,15.52,0,0,1,324.8,135.75Z" style="fill:#455a64"></path><path d="M263,139.46a6.22,6.22,0,0,1-2.45-.2,11.36,11.36,0,0,1-5.27-2.74,9.85,9.85,0,0,1-3-5.14,5.12,5.12,0,0,1-.09-2.46c.09,0,.05.94.44,2.37a10.57,10.57,0,0,0,3,4.85,12.5,12.5,0,0,0,5,2.77C262,139.32,263,139.37,263,139.46Z" style="fill:#fff"></path><path d="M295.08,138.86a7.79,7.79,0,0,1-2.36-.26,13.07,13.07,0,0,1-5.31-2.21,7.67,7.67,0,0,1-3-4.87,5.05,5.05,0,0,1,.06-1.76c.09-.41.19-.62.22-.61a11.3,11.3,0,0,0,.09,2.31,7.76,7.76,0,0,0,3,4.52,14.61,14.61,0,0,0,5.07,2.26A18.32,18.32,0,0,1,295.08,138.86Z" style="fill:#fff"></path><path d="M297.89,200.19s-.23,0-.55-.21a2.62,2.62,0,0,1-.94-1.32,10.9,10.9,0,0,1-.46-2.29,3,3,0,0,0-1.18-2.24,23.7,23.7,0,0,1-2.58-1.18,3.83,3.83,0,0,1-1.36-2,2.69,2.69,0,0,1,.11-2.16,6,6,0,0,0,.24,2,3.73,3.73,0,0,0,1.29,1.71c.64.5,1.63.56,2.58,1.13a2.66,2.66,0,0,1,1,1.22,5.35,5.35,0,0,1,.35,1.39,13.28,13.28,0,0,0,.34,2.25A3,3,0,0,0,297.89,200.19Z" style="fill:#bc8579"></path><path d="M302.32,198.78a3.2,3.2,0,0,1-1.87-1.22,5.06,5.06,0,0,1-1.11-2.21,4.82,4.82,0,0,1-.09-1.48c.05-.51.17-1,.18-1.49a2.8,2.8,0,0,0-1.24-2.28c-.33-.31-.66-.59-.94-.91a2.91,2.91,0,0,1-.56-1.05,1.85,1.85,0,0,1,.18-1.67c.28-.32.54-.33.54-.31s-.19.13-.37.42a1.78,1.78,0,0,0,0,1.45,2.72,2.72,0,0,0,.54.87c.26.27.59.54.93.84a5,5,0,0,1,1,1.07,2.5,2.5,0,0,1,.43,1.59c0,.55-.14,1-.19,1.52a4.52,4.52,0,0,0,.05,1.33,5,5,0,0,0,.92,2.08A9,9,0,0,0,302.32,198.78Z" style="fill:#bc8579"></path><path d="M169.49,261.88c-.41-.28-15.8-19-15.8-19s-.14-4.36-5.32-9.13-18.8-19.35-18.8-19.35l-15.4-1.64s-1.91,2.59,0,4.91l.29.35c-1.21-.15-4.84-.28-5.06,3.47-.28,4.49,1.09,5.86,1.09,5.86a19.74,19.74,0,0,0-1.78,6.4,18.12,18.12,0,0,0,.55,5.32s-.41,1.22,0,5.18a7.73,7.73,0,0,0,2.86,5.58,7.69,7.69,0,0,0-.68,5.73c1,3,4.77,5,4.77,5s7.5,3.41,9.4,3.68,13.77,2.32,13.77,2.32l9.19,13.58Z" style="fill:#e5ab91"></path><path d="M159.63,258.82a3.6,3.6,0,0,1-1.92-.48,7,7,0,0,1-1.81-1.19,16.68,16.68,0,0,1-1.71-2,5.21,5.21,0,0,0-1.87-1.59,5.72,5.72,0,0,1-1.92-1,1.51,1.51,0,0,1-.41-1.45c.13-.36.36-.44.36-.41s-.12.16-.17.46a1.42,1.42,0,0,0,.47,1.14,6.71,6.71,0,0,0,1.86.81,5.35,5.35,0,0,1,2.08,1.7,21.75,21.75,0,0,0,1.64,2,8.19,8.19,0,0,0,1.65,1.22C158.91,258.58,159.65,258.74,159.63,258.82Z" style="fill:#bc8579"></path><path d="M161.67,257.67s-.07-.19-.29-.44a2.24,2.24,0,0,0-1.24-.59,6.6,6.6,0,0,1-2.21-.47,1.9,1.9,0,0,1-.88-1.15,10.23,10.23,0,0,1-.26-1.41,2.35,2.35,0,0,0-.44-1.17,3,3,0,0,0-.94-.75,6.68,6.68,0,0,1-1.88-1.24A2,2,0,0,1,153,249c.06-.39.23-.54.25-.52s-.06.2,0,.52a1.83,1.83,0,0,0,.64,1.19,7.05,7.05,0,0,0,1.85,1.07,3.44,3.44,0,0,1,1.1.85,2.94,2.94,0,0,1,.56,1.41c.12,1,.2,1.87.86,2.23a7.79,7.79,0,0,0,2.06.52,2.23,2.23,0,0,1,1.31.83C161.74,257.44,161.7,257.67,161.67,257.67Z" style="fill:#bc8579"></path><polygon points="124.67 255.15 125.31 285.31 118.38 285.31 118.38 258.34 120.04 256 124.67 255.15" style="fill:#455a64"></polygon><path d="M113.73,216.76a37.13,37.13,0,0,0,3.34,2.46,18.3,18.3,0,0,0,9.45,2.64h1l-.06.32a12,12,0,0,0,1.94,9,17.11,17.11,0,0,0,2.63,2.86,3,3,0,0,1-.9-.57,10.4,10.4,0,0,1-2-2.09,11.93,11.93,0,0,1-1.91-3.9,11.8,11.8,0,0,1-.24-5.36l.27.31h-.74a17.59,17.59,0,0,1-9.65-2.85,15.59,15.59,0,0,1-2.4-1.92A3.74,3.74,0,0,1,113.73,216.76Z" style="fill:#bc8579"></path><path d="M110.53,227.25a1.79,1.79,0,0,1,.67-.3,7.87,7.87,0,0,1,2-.34,16.43,16.43,0,0,1,6.44,1.24,46.08,46.08,0,0,0,6.14,2.05,2.76,2.76,0,0,0,1.83-.2c.39-.22.56-.42.59-.39s-.09.27-.48.56a2.78,2.78,0,0,1-2,.39,33.41,33.41,0,0,1-6.26-1.92,18.56,18.56,0,0,0-6.26-1.36A22.16,22.16,0,0,0,110.53,227.25Z" style="fill:#bc8579"></path><path d="M109.5,238.87a2.6,2.6,0,0,1,.87-.51,6.53,6.53,0,0,1,2.73-.43c1.17,0,2.52.31,4,.46s3.17.41,4.91.6c.86.09,1.71.15,2.52.16.41,0,.81,0,1.2,0a3.9,3.9,0,0,0,1.06-.25,6.87,6.87,0,0,0,1.8-1,2.84,2.84,0,0,0,.66-.62,2.37,2.37,0,0,0,.32-.77,5.68,5.68,0,0,0,0-2.62,3.75,3.75,0,0,0-.35-.9s.35.2.55.84a5.53,5.53,0,0,1,.11,2.77,2.63,2.63,0,0,1-.34.9,3.42,3.42,0,0,1-.73.74,7.21,7.21,0,0,1-1.9,1.14,3.91,3.91,0,0,1-1.2.29c-.4,0-.81,0-1.23,0a25.45,25.45,0,0,1-2.58-.15c-1.75-.2-3.4-.48-4.9-.64s-2.86-.5-4-.57A8.13,8.13,0,0,0,109.5,238.87Z" style="fill:#bc8579"></path><path d="M112.4,249.82A2.29,2.29,0,0,1,113,249a3.29,3.29,0,0,1,1-.68,5.68,5.68,0,0,1,1.55-.38l1.86-.18a20.83,20.83,0,0,1,2.17-.14c1.52,0,3.19.07,4.92,0a8.32,8.32,0,0,0,2.44-.33,3.24,3.24,0,0,0,1.75-1.3,4.4,4.4,0,0,0,.48-3.68A7.37,7.37,0,0,0,128,240a5.67,5.67,0,0,1-.59-.8,2.81,2.81,0,0,1,.75.67,6.87,6.87,0,0,1,1.41,2.36,4.71,4.71,0,0,1-.43,4.06,3.78,3.78,0,0,1-2,1.51,8.68,8.68,0,0,1-2.59.37c-1.77.05-3.43-.07-4.94-.06q-1.12,0-2.13.09l-1.87.12a4,4,0,0,0-2.44.84C112.66,249.57,112.43,249.85,112.4,249.82Z" style="fill:#bc8579"></path><path d="M116.53,256c0-.09,1,.11,2.64,0a13,13,0,0,0,6-1.8,6.63,6.63,0,0,0,2.4-2.36,3.45,3.45,0,0,0,.3-2.64,2.92,2.92,0,0,0-1-1.53c-.35-.27-.6-.35-.59-.4a1.21,1.21,0,0,1,.7.23,3,3,0,0,1,1.23,1.59,3.75,3.75,0,0,1-.24,3,6.64,6.64,0,0,1-2.55,2.58,12.2,12.2,0,0,1-6.24,1.73,10.06,10.06,0,0,1-2-.19C116.76,256.07,116.52,256,116.53,256Z" style="fill:#bc8579"></path><path d="M130.9,233.06a21.08,21.08,0,0,0-.77,4.07,15.29,15.29,0,0,0,2.65,9.42,17,17,0,0,0,7.77,6,34.68,34.68,0,0,0,4,1.1,3.74,3.74,0,0,1-1.13-.05,14.81,14.81,0,0,1-3-.71,16.45,16.45,0,0,1-8.06-6.08,15,15,0,0,1-2.6-9.74,12.19,12.19,0,0,1,.66-3A4,4,0,0,1,130.9,233.06Z" style="fill:#bc8579"></path><rect x="91.38" y="282.45" width="61.01" height="18.98" style="fill:#455a64"></rect><path d="M101.37,282.64s-.14,0-.4-.05a5,5,0,0,0-1.09,0,7.88,7.88,0,0,0-1.57.38c-.58.2-1.19.48-1.84.78a16,16,0,0,1-1.85.75,7.21,7.21,0,0,1-1.6.31,4.33,4.33,0,0,1-1.1-.06,2.54,2.54,0,0,1-.39-.1s.14,0,.39.07a5.05,5.05,0,0,0,1.09,0,7.05,7.05,0,0,0,1.59-.33,14.87,14.87,0,0,0,1.84-.75,19.38,19.38,0,0,1,1.84-.78,7.46,7.46,0,0,1,1.6-.36,4.33,4.33,0,0,1,1.1,0A1.76,1.76,0,0,1,101.37,282.64Z" style="fill:#263238"></path><path d="M95,287.39a4.64,4.64,0,0,1-.56.11,9.09,9.09,0,0,0-2.58.94c-.31.17-.49.29-.5.28s0,0,.12-.1l.36-.22a7,7,0,0,1,1.25-.6,8.38,8.38,0,0,1,1.34-.35l.42-.05Z" style="fill:#263238"></path><path d="M106.87,282.45l-.29,0a3.75,3.75,0,0,0-.76.2,5.3,5.3,0,0,0-1,.55c-.37.24-.75.54-1.15.86a9.75,9.75,0,0,1-1.2.81,4,4,0,0,1-1.11.43,2.56,2.56,0,0,1-.79.05,1,1,0,0,1-.29-.05,1.64,1.64,0,0,0,.29,0,3,3,0,0,0,.78-.07,4.29,4.29,0,0,0,1.09-.44,9.6,9.6,0,0,0,1.18-.81c.41-.31.79-.62,1.16-.86a5.91,5.91,0,0,1,1.06-.54,3,3,0,0,1,.78-.17A1.59,1.59,0,0,1,106.87,282.45Z" style="fill:#263238"></path><path d="M114.48,285.54a3.15,3.15,0,0,0,0-.4,2.2,2.2,0,0,0-.31-1.05,2.09,2.09,0,0,0-1.25-1,3.76,3.76,0,0,0-2,.11,15.94,15.94,0,0,0-3.4,1.36c-.41.22-.74.41-1,.55l-.26.16-.09.06s0,0,.08-.07l.25-.17c.22-.15.55-.35,1-.58a15.32,15.32,0,0,1,3.41-1.39,3.86,3.86,0,0,1,2-.1,2.14,2.14,0,0,1,1.28,1,2.27,2.27,0,0,1,.29,1.08A1.3,1.3,0,0,1,114.48,285.54Z" style="fill:#263238"></path><path d="M112.07,285.47a2.5,2.5,0,0,0-.33-.22,1.85,1.85,0,0,0-.95-.19,3.69,3.69,0,0,0-1,.19l-.39.1a2.47,2.47,0,0,1,.38-.15,3.24,3.24,0,0,1,1-.22,1.7,1.7,0,0,1,1,.22.94.94,0,0,1,.25.19C112.05,285.44,112.08,285.47,112.07,285.47Z" style="fill:#263238"></path><path d="M95.19,289.64s-.22,0-.58.09a5.13,5.13,0,0,0-2.5,1.29c-.26.25-.4.42-.41.42s0-.05.09-.14a3.33,3.33,0,0,1,.29-.32,4.24,4.24,0,0,1,1.16-.85,4.57,4.57,0,0,1,1.36-.45l.43-.05Z" style="fill:#263238"></path><path d="M97.16,301.43l.15-.05.42-.16a4.79,4.79,0,0,0,1.4-.79,2.15,2.15,0,0,0,.65-.89,2.65,2.65,0,0,0,0-1.26,4.38,4.38,0,0,0-1.42-2.51,5.86,5.86,0,0,0-2.62-1.27,8.57,8.57,0,0,0-2.4-.17,14.72,14.72,0,0,0-1.61.21l-.44.08-.15,0,.15,0,.43-.09a12,12,0,0,1,1.62-.23,8.22,8.22,0,0,1,2.41.15,5.83,5.83,0,0,1,2.66,1.29,4.39,4.39,0,0,1,1.44,2.55,2.78,2.78,0,0,1-.06,1.29,2.28,2.28,0,0,1-.67.91,4.81,4.81,0,0,1-1.43.78C97.37,301.38,97.16,301.43,97.16,301.43Z" style="fill:#263238"></path><path d="M94,299.36a1.61,1.61,0,0,0-.51-.3,1.28,1.28,0,0,0-.68,0,1,1,0,0,0-.64.59.87.87,0,0,0,.22,1,1.51,1.51,0,0,0,1.21.23A3.67,3.67,0,0,0,96,299.3a2,2,0,0,0,.34-1.43,1.39,1.39,0,0,0-.78-1.08,2.48,2.48,0,0,0-1.25-.16,5.88,5.88,0,0,0-1.1.18,6.6,6.6,0,0,0-1.52.57l-.38.21-.14.08a4.68,4.68,0,0,1,.51-.32,6.77,6.77,0,0,1,1.52-.59,5.82,5.82,0,0,1,1.11-.19,2.51,2.51,0,0,1,1.28.16,1.44,1.44,0,0,1,.82,1.13,2.08,2.08,0,0,1-.35,1.48,3.75,3.75,0,0,1-2.43,1.58,1.61,1.61,0,0,1-1.26-.25.94.94,0,0,1-.23-1.06,1,1,0,0,1,.68-.61,1.23,1.23,0,0,1,.7,0,1.36,1.36,0,0,1,.39.21Z" style="fill:#263238"></path><path d="M118.9,297.57a5.39,5.39,0,0,1-.72.26,10.28,10.28,0,0,1-2.08.38,20.33,20.33,0,0,1-3.12,0c-1.17-.07-2.46-.19-3.82-.19a13.09,13.09,0,0,0-3.76.53,12.35,12.35,0,0,0-2.86,1.22,13.45,13.45,0,0,0-1.73,1.18c-.2.15-.34.29-.44.37l-.15.13s.19-.2.57-.52a13,13,0,0,1,4.59-2.45,13.22,13.22,0,0,1,3.78-.54c1.36,0,2.65.13,3.82.2a22,22,0,0,0,3.12,0,10.39,10.39,0,0,0,2.07-.36,3.94,3.94,0,0,0,.54-.17Z" style="fill:#263238"></path><path d="M122.79,299.78l-.31,0-.9.05-1.43.07a1.8,1.8,0,0,1-.88-.08.32.32,0,0,1-.16-.44.63.63,0,0,1,.43-.29,20.7,20.7,0,0,1,4.88-.5,1.24,1.24,0,0,1,.69.19.51.51,0,0,1,.11.69,1.45,1.45,0,0,1-.55.49l-.34.17-.34.15a8.63,8.63,0,0,1-3,.6,27.19,27.19,0,0,1-6-.84,16.15,16.15,0,0,0-4.86-.43,7.74,7.74,0,0,0-3.14.94,5.91,5.91,0,0,0-.74.51l-.25.19.24-.2a4.72,4.72,0,0,1,.73-.52,7.6,7.6,0,0,1,3.15-1A16.27,16.27,0,0,1,115,300a27.19,27.19,0,0,0,5.93.83,8.42,8.42,0,0,0,3-.58l.34-.15.33-.17a1.42,1.42,0,0,0,.53-.47.45.45,0,0,0-.09-.6,1.22,1.22,0,0,0-.65-.17,21.23,21.23,0,0,0-4.87.48.63.63,0,0,0-.4.26.29.29,0,0,0,.14.38,1.7,1.7,0,0,0,.86.07l1.43-.05.9,0Z" style="fill:#263238"></path><path d="M133.81,297.77l-.09,0-.27.1c-.23.07-.55.2-.95.37-.79.35-1.84.92-3,1.55-.58.31-1.15.59-1.68.81a9.59,9.59,0,0,1-1.44.5,6.83,6.83,0,0,1-1.38.22s0,0,.09,0l.28,0c.12,0,.27,0,.43-.08a5.58,5.58,0,0,0,.57-.13,11.48,11.48,0,0,0,1.43-.51c.52-.23,1.08-.51,1.67-.82,1.16-.62,2.22-1.19,3-1.52A8.69,8.69,0,0,1,133.81,297.77Z" style="fill:#263238"></path><path d="M143.44,298.33l-.14,0-.37-.05c-.17,0-.37-.06-.61-.08s-.5-.06-.8-.07a14.78,14.78,0,0,0-2.08,0,17.57,17.57,0,0,0-2.52.41,17.1,17.1,0,0,0-2.42.83,14.19,14.19,0,0,0-1.85,1,7.1,7.1,0,0,0-.67.44c-.2.12-.36.25-.5.35l-.3.23-.11.07a11.7,11.7,0,0,1,1.55-1.14,14.14,14.14,0,0,1,1.85-1,17.69,17.69,0,0,1,2.43-.84,16.58,16.58,0,0,1,2.53-.41,14.78,14.78,0,0,1,2.1,0A12.6,12.6,0,0,1,143.44,298.33Z" style="fill:#263238"></path><path d="M151.73,289.58l-.18.11-.5.31a9,9,0,0,0-1.71,1.33,4.69,4.69,0,0,0-.84,1.22,3.17,3.17,0,0,0-.27,1.66c.08.6.31,1.2.44,1.85a2.69,2.69,0,0,1,0,1,1.74,1.74,0,0,1-.53.9,5.73,5.73,0,0,1-1.83.92l-1.78.68a7.4,7.4,0,0,0-.8.35,1.13,1.13,0,0,0-.54.6.68.68,0,0,0,.12.7,1,1,0,0,0,.64.23,14,14,0,0,0,2.16-.16l.59-.09.2,0s-.28.07-.78.15a13.67,13.67,0,0,1-2.17.18,1,1,0,0,1-.68-.24.71.71,0,0,1-.13-.76,1.13,1.13,0,0,1,.55-.63,5.5,5.5,0,0,1,.82-.36l1.78-.68a5.8,5.8,0,0,0,1.8-.92,1.58,1.58,0,0,0,.5-.86,2.49,2.49,0,0,0,0-1c-.13-.65-.36-1.25-.43-1.86a3.06,3.06,0,0,1,.28-1.69,4.45,4.45,0,0,1,.85-1.24A8.52,8.52,0,0,1,151,290l.51-.29Z" style="fill:#263238"></path><path d="M151.83,301.55l-.05-.08-.14-.24c-.12-.21-.28-.51-.46-.9a8.14,8.14,0,0,1-.82-3.23,5.29,5.29,0,0,1,.94-3.17,4.27,4.27,0,0,1,.7-.74l.3-.21a3.52,3.52,0,0,1-.28.24,4.3,4.3,0,0,0-.68.74,5.37,5.37,0,0,0-.91,3.14,8.76,8.76,0,0,0,.79,3.21c.18.39.33.7.44.91l.13.24Z" style="fill:#263238"></path><path d="M118.66,287.61a2.32,2.32,0,0,0,.54-.85,2.46,2.46,0,0,0,.1-1.08,2.81,2.81,0,0,0-.49-1.22,5,5,0,0,0-1.85-1.55c-.28-.15-.51-.25-.67-.33s-.25-.11-.24-.12l.06,0,.19.08a6.29,6.29,0,0,1,.68.3,4.91,4.91,0,0,1,1.89,1.55,3,3,0,0,1,.5,1.27,2.54,2.54,0,0,1-.12,1.1,1.92,1.92,0,0,1-.38.64A1.32,1.32,0,0,1,118.66,287.61Z" style="fill:#263238"></path><path d="M152.38,288.38l-.28-.21a5.43,5.43,0,0,0-.85-.53,8.7,8.7,0,0,0-3.53-.95,19.37,19.37,0,0,0-5.42.55c-1,.21-2.06.45-3.16.65a33.86,33.86,0,0,1-3.45.43,34.33,34.33,0,0,1-6.7-.14,13.77,13.77,0,0,1-2.86-.62,7.06,7.06,0,0,1-2.24-1.21,8.16,8.16,0,0,1-1.39-1.57,13.54,13.54,0,0,0-1-1.25,4,4,0,0,0-.77-.64,1.8,1.8,0,0,0-.22-.14l-.08,0a1.6,1.6,0,0,1,.31.16,4.31,4.31,0,0,1,.78.64,14.47,14.47,0,0,1,1,1.24,7.58,7.58,0,0,0,1.39,1.56,7,7,0,0,0,2.22,1.2,14.36,14.36,0,0,0,2.85.6,35,35,0,0,0,6.69.14c1.18-.09,2.33-.24,3.43-.43s2.16-.44,3.17-.65a19,19,0,0,1,5.44-.53,8.89,8.89,0,0,1,3.54,1,7.94,7.94,0,0,1,.84.54Z" style="fill:#263238"></path><path d="M138.56,284.45s-.75.07-2.07.13a22.26,22.26,0,0,1-2.4,0,11.47,11.47,0,0,1-3.06-.62l-.1,0,.1,0a24.35,24.35,0,0,1,9.49,0,1.27,1.27,0,0,1,.81.37.53.53,0,0,1,.07.44.73.73,0,0,1-.24.38,1.51,1.51,0,0,1-.8.32l-.84.13c-1.1.17-2.17.31-3.19.39a14.61,14.61,0,0,1-5.41-.46A7.83,7.83,0,0,1,127,283l-.22-.28.23.27a7.9,7.9,0,0,0,.71.7,8.79,8.79,0,0,0,3.22,1.7,14.46,14.46,0,0,0,5.38.44c1-.08,2.09-.23,3.19-.39l.83-.13a1.54,1.54,0,0,0,.77-.3.57.57,0,0,0,.16-.73,1.19,1.19,0,0,0-.77-.34,24.35,24.35,0,0,0-9.45,0v-.06a11.46,11.46,0,0,0,3,.63,20,20,0,0,0,2.39.05l1.54-.06Z" style="fill:#263238"></path><path d="M152.25,285a11,11,0,0,1-1.49.07,15.36,15.36,0,0,1-3.56-.48,14.78,14.78,0,0,1-3.34-1.31,11.89,11.89,0,0,1-1.27-.78l.09.05.25.15c.22.14.54.32.95.53a15.56,15.56,0,0,0,3.34,1.29,15.87,15.87,0,0,0,3.54.5c.46,0,.83,0,1.09,0h.4Z" style="fill:#263238"></path><path d="M152.24,283.32l-.17,0-.46,0a10.4,10.4,0,0,1-1.56,0,11,11,0,0,1-1.53-.24l-.45-.12-.17-.06s.07,0,.17,0l.46.1a13.25,13.25,0,0,0,1.53.22,14.36,14.36,0,0,0,1.54,0l.47,0Z" style="fill:#263238"></path><rect x="96.6" y="286" width="50.37" height="12.13" style="fill:#f5f5f5"></rect><path d="M147,288a1.37,1.37,0,0,1-.07.16l-.23.44a7.07,7.07,0,0,1-.37.68c-.16.26-.32.56-.55.88s-.45.66-.73,1a12.55,12.55,0,0,1-.92,1.11,20.23,20.23,0,0,1-2.41,2.23,19.9,19.9,0,0,1-2.78,1.76c-.46.22-.89.44-1.31.6l-.6.25-.57.19c-.36.13-.7.21-1,.3s-.55.14-.76.18l-.48.09-.17,0,.17,0,.48-.11a7.5,7.5,0,0,0,.75-.19c.29-.09.63-.17,1-.31l.57-.19.6-.25c.42-.16.84-.39,1.3-.6a20.21,20.21,0,0,0,2.76-1.77,19.39,19.39,0,0,0,2.41-2.22c.34-.38.66-.73.93-1.09s.52-.7.73-1,.39-.61.55-.87.29-.49.39-.68l.23-.43Z" style="fill:#e0e0e0"></path><path d="M146.75,295.4s0,0-.07,0l-.22,0c-.19,0-.46.06-.8.13a14.25,14.25,0,0,0-4.91,1.9c-.29.18-.52.34-.67.45l-.18.12-.07,0,.06,0,.17-.14.66-.46a13.54,13.54,0,0,1,2.37-1.21,12.74,12.74,0,0,1,2.57-.7c.33-.06.61-.09.8-.11h.29Z" style="fill:#e0e0e0"></path><path d="M139.36,291.74a3.3,3.3,0,0,1-.32.17,2.09,2.09,0,0,1-1,.27,1.12,1.12,0,0,1-.68-.26.76.76,0,0,1-.23-.82,2.06,2.06,0,0,1,.58-.82,8.06,8.06,0,0,1,.86-.74,7.8,7.8,0,0,1,2.3-1.19,7.65,7.65,0,0,1,1.41-.32,3.23,3.23,0,0,1,.76,0,1.39,1.39,0,0,1,.71.34,1,1,0,0,1,.29.75,1.72,1.72,0,0,1-.26.78,10.54,10.54,0,0,1-1,1.34,13.08,13.08,0,0,1-1.26,1.2,12,12,0,0,1-1.46,1,12.21,12.21,0,0,1-3.24,1.38,12.34,12.34,0,0,1-1.66.3,2.86,2.86,0,0,1-1.59-.24,1.58,1.58,0,0,1-.91-1.19,2.62,2.62,0,0,1,.29-1.41,12.54,12.54,0,0,1,3.91-4.93,11.59,11.59,0,0,1,1.14-.77l-.3.2c-.19.13-.47.32-.83.59a13.74,13.74,0,0,0-2.59,2.69,12.89,12.89,0,0,0-1.28,2.25,2.6,2.6,0,0,0-.28,1.38,1.52,1.52,0,0,0,.88,1.14,2.89,2.89,0,0,0,1.55.22,10.6,10.6,0,0,0,1.65-.3,12.45,12.45,0,0,0,3.23-1.37,14.05,14.05,0,0,0,1.45-1,13,13,0,0,0,1.25-1.2,9,9,0,0,0,1-1.33,1.59,1.59,0,0,0,.25-.75.88.88,0,0,0-.26-.69,1.82,1.82,0,0,0-1.42-.35,7,7,0,0,0-1.4.3,8,8,0,0,0-2.29,1.18,7,7,0,0,0-.86.73,2.08,2.08,0,0,0-.57.81.7.7,0,0,0,.21.77,1.06,1.06,0,0,0,.66.26,2.16,2.16,0,0,0,1-.25Z" style="fill:#e0e0e0"></path><path d="M134,286.55a3.23,3.23,0,0,1,0,.59,5.73,5.73,0,0,1-.47,1.55,8.58,8.58,0,0,1-1.34,2,17.08,17.08,0,0,1-2.19,2c-.82.64-1.62,1.22-2.31,1.8a13.55,13.55,0,0,0-1.7,1.68,8.41,8.41,0,0,0-.9,1.34c-.09.17-.16.3-.2.39l-.06.14a4.14,4.14,0,0,1,.23-.55,7.62,7.62,0,0,1,.89-1.35,13.58,13.58,0,0,1,1.7-1.7c.69-.58,1.49-1.17,2.31-1.81a16.88,16.88,0,0,0,2.18-1.95,8.5,8.5,0,0,0,1.34-2,6.32,6.32,0,0,0,.5-1.53,3.09,3.09,0,0,0,.05-.44C134,286.6,134,286.55,134,286.55Z" style="fill:#e0e0e0"></path><path d="M111.45,298a20.68,20.68,0,0,1,3.43-.88c1.08-.21,2.37-.39,3.79-.67.71-.15,1.45-.31,2.2-.53a16.36,16.36,0,0,0,2.28-.87,16.62,16.62,0,0,0,2.12-1.19,16.1,16.1,0,0,0,1.8-1.38,16.74,16.74,0,0,0,2.58-2.84,20,20,0,0,0,1.34-2.21l.3-.64.11-.22s-.13.32-.39.87a16.1,16.1,0,0,1-1.32,2.23,16.39,16.39,0,0,1-2.58,2.86,17.44,17.44,0,0,1-1.8,1.39,18.12,18.12,0,0,1-2.13,1.2,17.77,17.77,0,0,1-2.29.86c-.75.22-1.5.39-2.21.53-1.42.28-2.71.46-3.79.66s-1.94.4-2.53.56l-.68.2Z" style="fill:#e0e0e0"></path><path d="M105.9,294.82a1.09,1.09,0,0,1,0-.12,1.23,1.23,0,0,1,.07-.36,2.42,2.42,0,0,1,.78-1.12,6.17,6.17,0,0,1,1.91-1,8.56,8.56,0,0,1,2.83-.51,8.17,8.17,0,0,1,1.68.14,3.37,3.37,0,0,1,.86.25,1.7,1.7,0,0,1,.73.57,1.19,1.19,0,0,1,.23.93,1.46,1.46,0,0,1-.55.83,4,4,0,0,1-.87.53c-.31.15-.63.29-1,.43a23.58,23.58,0,0,1-4.24,1.3c-.76.15-1.54.27-2.33.35l-1.2.08a3.55,3.55,0,0,1-1.21-.13,1.8,1.8,0,0,1-1-.74,2.35,2.35,0,0,1-.35-1.15,3.15,3.15,0,0,1,.85-2.16,8.59,8.59,0,0,1,1.71-1.49,11.89,11.89,0,0,1,1.9-1.06,16.86,16.86,0,0,1,3.84-1.18,27.56,27.56,0,0,1,3.47-.45c1.07-.09,2-.09,2.88-.2a4.66,4.66,0,0,0,2-.7,2.8,2.8,0,0,0,.92-1,1.49,1.49,0,0,0,.14-.33,1.26,1.26,0,0,0,0-.12,1.85,1.85,0,0,1-.17.45,2.87,2.87,0,0,1-.91,1,4.58,4.58,0,0,1-2,.72c-.84.11-1.81.11-2.88.21a29.65,29.65,0,0,0-3.46.45,17.27,17.27,0,0,0-3.82,1.19,10.71,10.71,0,0,0-1.89,1.06,8.76,8.76,0,0,0-1.7,1.47,3.12,3.12,0,0,0-.83,2.12,2.19,2.19,0,0,0,.34,1.11,1.66,1.66,0,0,0,.93.71,3.41,3.41,0,0,0,1.19.13c.4,0,.8,0,1.2-.08.79-.08,1.56-.2,2.31-.35a22.79,22.79,0,0,0,4.24-1.29,8.26,8.26,0,0,0,1.82-.95,1.44,1.44,0,0,0,.52-.79,1.1,1.1,0,0,0-.21-.88,2.37,2.37,0,0,0-1.56-.81,8,8,0,0,0-1.67-.14,8.56,8.56,0,0,0-2.82.49,6.29,6.29,0,0,0-1.91,1,2.51,2.51,0,0,0-.78,1.11,1.18,1.18,0,0,0-.07.35A1.13,1.13,0,0,1,105.9,294.82Z" style="fill:#e0e0e0"></path><path d="M111.76,286.29s-.22.15-.65.38-1.06.54-1.86.88-1.76.73-2.83,1.16a28.24,28.24,0,0,0-3.36,1.61,11.83,11.83,0,0,0-2.93,2.29,8.58,8.58,0,0,0-1.6,2.56,6.79,6.79,0,0,0-.43,2,5.12,5.12,0,0,0,0,.56c0,.13,0,.19,0,.19s0-.06,0-.19a4.29,4.29,0,0,1,0-.56,6.41,6.41,0,0,1,.42-2,8.22,8.22,0,0,1,1.6-2.6,11.68,11.68,0,0,1,2.93-2.3,27.65,27.65,0,0,1,3.38-1.61c1.06-.43,2-.8,2.83-1.14s1.43-.64,1.86-.87l.5-.26Z" style="fill:#e0e0e0"></path><path d="M97.19,289.64l.09,0,.24,0c.21,0,.51-.1.87-.19a13.73,13.73,0,0,0,5.28-2.57c.29-.24.53-.44.68-.58l.19-.16.06-.05,0,.06-.18.17c-.15.15-.38.36-.67.6a13.44,13.44,0,0,1-2.5,1.59,13.18,13.18,0,0,1-2.79,1,8.7,8.7,0,0,1-.89.16l-.24,0Z" style="fill:#e0e0e0"></path><path d="M109.94,289.7v.18a1.06,1.06,0,0,0-.53.14c-.09.07-.13.25-.13.53v3.13a1.66,1.66,0,0,1-.42,1.2,1.56,1.56,0,0,1-1.18.43,1.24,1.24,0,0,1-.87-.29.82.82,0,0,1-.33-.62.57.57,0,0,1,.16-.42.5.5,0,0,1,.37-.16.45.45,0,0,1,.35.15.52.52,0,0,1,.14.36.66.66,0,0,1-.09.33,1.1,1.1,0,0,0-.08.19.18.18,0,0,0,.08.16.34.34,0,0,0,.2.06.44.44,0,0,0,.44-.22,1,1,0,0,0,.06-.42v-4a.43.43,0,0,0-.22-.43,1.46,1.46,0,0,0-.51-.08v-.18Z" style="fill:#263238"></path><path d="M112.66,289.7v.18a1.13,1.13,0,0,0-.57.13.74.74,0,0,0-.14.54V293a2.33,2.33,0,0,0,.13.85.9.9,0,0,0,.91.56,1.11,1.11,0,0,0,1.13-.62,2.18,2.18,0,0,0,.17-.95V290.6a.76.76,0,0,0-.15-.54.85.85,0,0,0-.56-.18v-.18h1.6v.18a1,1,0,0,0-.46.17c-.08.06-.11.21-.11.45v2.32a2.05,2.05,0,0,1-.45,1.42,1.78,1.78,0,0,1-1.4.51,1.83,1.83,0,0,1-1.71-.75,1.89,1.89,0,0,1-.25-1v-2.42a.8.8,0,0,0-.11-.52.89.89,0,0,0-.49-.15v-.18Z" style="fill:#263238"></path><path d="M115.58,292.91h.21a2.32,2.32,0,0,0,.56,1.18,1.25,1.25,0,0,0,.89.37.84.84,0,0,0,.69-.25.88.88,0,0,0,.2-.54.72.72,0,0,0-.21-.53,2.78,2.78,0,0,0-.57-.35l-.47-.23a3.11,3.11,0,0,1-1-.69,1.27,1.27,0,0,1-.28-.84,1.52,1.52,0,0,1,.38-1,1.38,1.38,0,0,1,1.14-.47,2.37,2.37,0,0,1,.76.12l.42.13a.21.21,0,0,0,.17-.07.69.69,0,0,0,.07-.19h.22v1.58h-.2a2.37,2.37,0,0,0-.5-.94,1.12,1.12,0,0,0-.88-.4.81.81,0,0,0-.57.2.67.67,0,0,0-.21.49.63.63,0,0,0,.2.51,4.24,4.24,0,0,0,.87.51l.53.27a2.19,2.19,0,0,1,.57.4,1.38,1.38,0,0,1,.4,1,1.54,1.54,0,0,1-.43,1,1.73,1.73,0,0,1-1.36.49,3.27,3.27,0,0,1-.44,0,2.23,2.23,0,0,1-.44-.13l-.14-.05-.09,0H116a.17.17,0,0,0-.15.07.57.57,0,0,0-.08.19h-.21Z" style="fill:#263238"></path><path d="M119.56,289.7h4.37v1.46h-.21a1.3,1.3,0,0,0-.58-1.06,1.9,1.9,0,0,0-.82-.17v3.83a.77.77,0,0,0,.14.53.88.88,0,0,0,.58.13v.18h-2.58v-.18a.89.89,0,0,0,.56-.13.72.72,0,0,0,.14-.53v-3.83a1.88,1.88,0,0,0-.81.17,1.21,1.21,0,0,0-.59,1.06h-.21Z" style="fill:#263238"></path><path d="M124.32,294.42a1.13,1.13,0,0,0,.45-.08.44.44,0,0,0,.22-.43v-3.52a.45.45,0,0,0-.21-.43,1.36,1.36,0,0,0-.46-.08v-.18h2.54v.18a1.38,1.38,0,0,0-.47.08.44.44,0,0,0-.21.43v3.52a.46.46,0,0,0,.17.41,1.09,1.09,0,0,0,.51.1v.18h-2.54Z" style="fill:#263238"></path><path d="M130.76,289.77a2.82,2.82,0,0,0,.51.17.26.26,0,0,0,.22-.1.54.54,0,0,0,.11-.23h.2v1.7h-.18a4.12,4.12,0,0,0-.54-.87,1.5,1.5,0,0,0-1.15-.59,1.07,1.07,0,0,0-1,.63,4,4,0,0,0-.3,1.69,3.82,3.82,0,0,0,.18,1.28,1.24,1.24,0,0,0,1.25.94,1.86,1.86,0,0,0,1-.31,3.82,3.82,0,0,0,.65-.58l.21.18a4,4,0,0,1-.74.69,2.31,2.31,0,0,1-1.28.38,2.63,2.63,0,0,1-1.8-.64,2.38,2.38,0,0,1-.8-1.9,2.48,2.48,0,0,1,2.54-2.6A2.74,2.74,0,0,1,130.76,289.77Z" style="fill:#263238"></path><path d="M132.39,294.6v-.18a1,1,0,0,0,.44-.09.42.42,0,0,0,.2-.42v-3.52a.42.42,0,0,0-.21-.42,1,1,0,0,0-.43-.09v-.18h4.18v1.46h-.18a1.55,1.55,0,0,0-.47-1,2,2,0,0,0-1.2-.26.89.89,0,0,0-.43.07.35.35,0,0,0-.09.28V292a1.11,1.11,0,0,0,.84-.23,1.71,1.71,0,0,0,.34-.85h.18v2.46h-.18a1.55,1.55,0,0,0-.32-.88,1.15,1.15,0,0,0-.86-.25V294a.36.36,0,0,0,.12.31.91.91,0,0,0,.49.08,1.83,1.83,0,0,0,1.91-1.28h.2l-.29,1.51Z" style="fill:#263238"></path><polygon points="117.21 200.14 118.96 179.61 123.35 179.61 125.13 200.14 117.21 200.14" style="fill:#455a64"></polygon><path d="M158,205.31a2.48,2.48,0,0,0,3-3.31c-.41-.88-1.34-1.58-3.23-1.71-5.08-.34-63-1-73.49-1.1a3.44,3.44,0,0,0-3.34,2,2.1,2.1,0,0,0,.41,1.88c1.3,1,2.44.57,4.22-.74,2.28-1.66,29.09.71,32.09,1.72h6.18s5-1.67,22.93-1.73c10.45,0,8.47,1.46,10.29,2.75Z" style="fill:#455a64"></path><polygon points="123.82 203.41 124.58 208.89 123.63 209.51 124.58 213.88 116.39 213.01 118.38 209.51 117.62 208.47 117.96 203.49 123.82 203.41" style="fill:#455a64"></polygon><circle cx="121.17" cy="174.88" r="6.41" style="fill:#455a64"></circle><path d="M92.76,202.29c.37,1.31,1.91,6.84,4.83,17.28l12.11,43.64.1.36H78.2l.08-.35c4.14-17.43,7.76-32.7,10.36-43.66,2.49-10.43,3.81-15.95,4.12-17.27-.3,1.34-1.58,7-4,17.62-2.49,10.9-6,26.1-9.93,43.44l-.28-.35h30.86l-.28.36c-4.65-17.32-8.74-32.52-11.67-43.43C94.62,209.27,93.12,203.63,92.76,202.29Z" style="fill:#263238"></path><path d="M74.89,262h39.69s-2,14.7-20,14.62C76.76,276.54,74.89,262,74.89,262Z" style="fill:#455a64"></path><path d="M99,274.42a2.45,2.45,0,0,1-.88.24,14.31,14.31,0,0,1-2.46.26,19.76,19.76,0,0,1-3.67-.25,22.48,22.48,0,0,1-4.34-1.22,21.54,21.54,0,0,1-4-2.13A20,20,0,0,1,80.84,269a14.26,14.26,0,0,1-1.59-1.89,2.69,2.69,0,0,1-.47-.78c.08-.07.84,1,2.35,2.37A22,22,0,0,0,84,270.87a23.26,23.26,0,0,0,3.89,2,23.56,23.56,0,0,0,4.22,1.23,21.53,21.53,0,0,0,3.57.36C97.69,274.54,99,274.32,99,274.42Z" style="fill:#fff"></path><path d="M152.45,202.29c.37,1.31,1.91,6.84,4.83,17.28l12.11,43.64.1.36h-31.6l.09-.35,10.35-43.66c2.49-10.43,3.81-15.95,4.12-17.27-.3,1.34-1.58,7-4,17.62-2.49,10.9-6,26.1-9.93,43.44l-.27-.35h30.85l-.27.36c-4.66-17.32-8.75-32.52-11.68-43.43C154.32,209.27,152.81,203.63,152.45,202.29Z" style="fill:#263238"></path><path d="M134.59,262h39.68s-2,14.7-20,14.62C136.45,276.54,134.59,262,134.59,262Z" style="fill:#455a64"></path><path d="M158.67,274.42a2.45,2.45,0,0,1-.88.24,14.31,14.31,0,0,1-2.46.26,19.87,19.87,0,0,1-3.67-.25,22.48,22.48,0,0,1-4.34-1.22,21.54,21.54,0,0,1-4-2.13,20.58,20.58,0,0,1-2.82-2.36,14.26,14.26,0,0,1-1.59-1.89,3,3,0,0,1-.47-.78c.09-.07.85,1,2.35,2.37a22.75,22.75,0,0,0,2.83,2.21,22.07,22.07,0,0,0,8.11,3.27,21.64,21.64,0,0,0,3.57.36C157.39,274.54,158.65,274.32,158.67,274.42Z" style="fill:#fff"></path><path d="M347,297.34s-1.76,20.28-1.11,25.72,6,36.06,11.73,40.34,12.2,10.22,20.61,9.4,12.52-2.14,13.84-6.26,7.75-20.11,6.27-27.2-6.93-18.13-6.93-18.13-4.28-33.13-6.43-34.95l-2.14-1.81s3.63-13,3.3-17-4.78-38.27-11.94-43.41a44.79,44.79,0,0,0-11-5.77l-7.58,31.38Z" style="fill:#263238"></path><path d="M390.54,328.72a6.94,6.94,0,0,1-.93-1.17c-.55-.79-1.32-1.95-2.16-3.45a42.66,42.66,0,0,1-2.55-5.48,36.6,36.6,0,0,0-3-6.67,21.58,21.58,0,0,0-5.09-5.17l-4.82-3.6-3.23-2.46a8.26,8.26,0,0,1-1.15-1,7.46,7.46,0,0,1,1.27.79l3.33,2.33c1.39,1,3.07,2.16,4.89,3.52a21.45,21.45,0,0,1,5.24,5.26,35.59,35.59,0,0,1,3,6.79,47.08,47.08,0,0,0,2.43,5.47c.78,1.52,1.5,2.7,2,3.52A9.33,9.33,0,0,1,390.54,328.72Z" style="fill:#455a64"></path><path d="M378,325.6a4.31,4.31,0,0,1-.6,1,21.16,21.16,0,0,1-2,2.48,18.21,18.21,0,0,1-8.93,5.44,12.94,12.94,0,0,1-10.19-1.87A9.11,9.11,0,0,1,354,330.4a3.78,3.78,0,0,1-.58-1,13.47,13.47,0,0,0,3.07,3,13,13,0,0,0,9.86,1.66,18.65,18.65,0,0,0,8.78-5.19C377,326.93,378,325.54,378,325.6Z" style="fill:#455a64"></path><path d="M379,283.82a31.77,31.77,0,0,1-3.31-.55,58.74,58.74,0,0,0-8-.78,59.38,59.38,0,0,0-8.06.39c-2.05.25-3.31.48-3.33.4a2.81,2.81,0,0,1,.87-.27c.56-.15,1.39-.32,2.41-.49a45.23,45.23,0,0,1,8.13-.55,44.71,44.71,0,0,1,8.08.94c1,.22,1.84.43,2.39.6A3.3,3.3,0,0,1,379,283.82Z" style="fill:#455a64"></path><path d="M374.77,273.73a31,31,0,0,1-3.16.89,62.62,62.62,0,0,0-14.58,6,29.45,29.45,0,0,1-2.88,1.59s.23-.23.69-.57,1.14-.8,2-1.34a48.74,48.74,0,0,1,14.68-6c1-.22,1.8-.37,2.37-.45A3.41,3.41,0,0,1,374.77,273.73Z" style="fill:#455a64"></path><path d="M367.44,228.84a2.1,2.1,0,0,1-.19.52l-.65,1.47c-.59,1.26-1.39,3.11-2.33,5.41s-2,5.07-3,8.18-2.05,6.59-3,10.27-1.56,7.24-2.09,10.48-.85,6.19-1.06,8.66-.35,4.49-.41,5.88l-.09,1.6a2.37,2.37,0,0,1-.07.56,2.28,2.28,0,0,1,0-.56V279.7c0-1.39.07-3.41.25-5.9s.48-5.44,1-8.7,1.17-6.83,2.06-10.53,2-7.18,3-10.3,2.15-5.89,3.15-8.17,1.84-4.12,2.49-5.36l.73-1.42A2.58,2.58,0,0,1,367.44,228.84Z" style="fill:#455a64"></path><path d="M374.39,314.52c-.09-.41-1.94-9-7.62-14.28s-13.4-19.38-13.4-19.38-3.51-6.25-3.24-11.94,5.13-13.45,2.22-14.7-9.42.14-11.64,12.48-1.53,17.48-1.53,17.48-14.13.81-14,6.22,3.59,7.07,3.59,7.07-3.59,4-1.78,6.24,5.26,2.21,5.26,2.21-2.21.7.14,4.44a8.9,8.9,0,0,0,6,4.16,6.44,6.44,0,0,0,.83,5.13c1.67,2.77,2.78,2.91,4,2.77s8-1.39,8-1.39.83,3.09,5.13,4.73l-.28,2.76s-.27,8.31,9.71,5.68S376.33,323.11,374.39,314.52Z" style="fill:#e5ab91"></path><path d="M351.59,279.49s-.44-.13-1.25-.21a7.93,7.93,0,0,0-3.37.49,21.15,21.15,0,0,0-4.5,2.47,26.66,26.66,0,0,1-2.66,1.57,14.43,14.43,0,0,1-3.14,1.12c-2.22.5-4.33.86-6.23,1.25a10.08,10.08,0,0,0-2.57.85,4.55,4.55,0,0,0-1.71,1.52,5.12,5.12,0,0,0-.78,3.24c.06.81.23,1.24.18,1.26a1.62,1.62,0,0,1-.15-.3,5.29,5.29,0,0,1,.44-4.4,4.76,4.76,0,0,1,1.82-1.7,10.46,10.46,0,0,1,2.66-.94c1.92-.42,4-.8,6.22-1.29a17.15,17.15,0,0,0,5.67-2.59,20,20,0,0,1,4.63-2.41,7.65,7.65,0,0,1,3.51-.34,4.52,4.52,0,0,1,.93.25C351.5,279.42,351.6,279.47,351.59,279.49Z" style="fill:#bc8579"></path><path d="M351.2,288.06a24.16,24.16,0,0,1-3.25,1.47l-8,3.23c-3.12,1.26-5.94,2.4-8,3.27-1,.43-1.82.8-2.37,1.06a4.55,4.55,0,0,1-.88.38,13.26,13.26,0,0,1,3.1-1.77c2-1,4.79-2.16,7.91-3.42s6-2.34,8-3.1A24.67,24.67,0,0,1,351.2,288.06Z" style="fill:#bc8579"></path><path d="M364.13,307.62a2.77,2.77,0,0,1-.55.94,7.62,7.62,0,0,1-2.3,1.93,12.05,12.05,0,0,1-4.21,1.37,40.17,40.17,0,0,1-5.39.27,35.58,35.58,0,0,0-9.57,1.35c-2.38.69-3.8,1.32-3.83,1.24a3.58,3.58,0,0,1,1-.52,25.7,25.7,0,0,1,2.77-1.07,31.77,31.77,0,0,1,9.66-1.52,44.65,44.65,0,0,0,5.33-.23,12.16,12.16,0,0,0,4.11-1.22A9.35,9.35,0,0,0,364.13,307.62Z" style="fill:#bc8579"></path><path d="M366.68,315.27s.11.24.08.71a3.38,3.38,0,0,1-.78,1.81,5.2,5.2,0,0,1-2.42,1.62,20.35,20.35,0,0,1-3.43.73c-2.44.39-4.65.7-6.26.85a8.13,8.13,0,0,1-2.63,0c0-.07,1-.15,2.58-.4l6.23-1a24,24,0,0,0,3.36-.67,5.07,5.07,0,0,0,2.29-1.41A4,4,0,0,0,366.68,315.27Z" style="fill:#bc8579"></path><path d="M369,319.09a4.59,4.59,0,0,1-1.31,1.69,9.12,9.12,0,0,1-9.79,1.7,4.53,4.53,0,0,1-1.81-1.15c0-.07.73.39,1.95.81a9.67,9.67,0,0,0,9.4-1.64C368.4,319.69,368.88,319,369,319.09Z" style="fill:#bc8579"></path><path d="M368.75,311.17a32.5,32.5,0,0,0-3-6.87,31.47,31.47,0,0,0-4.92-5.65,6.69,6.69,0,0,1,1.84,1.27,18,18,0,0,1,3.52,4.1,18.46,18.46,0,0,1,2.2,4.94A7,7,0,0,1,368.75,311.17Z" style="fill:#bc8579"></path><path d="M371.51,309.55a13.39,13.39,0,0,1-1.82-2.52A13.74,13.74,0,0,1,368,304.4a7.33,7.33,0,0,1,2.09,2.34A7.19,7.19,0,0,1,371.51,309.55Z" style="fill:#bc8579"></path><path d="M354.74,299.76c0,.09-1.31.1-3.39.43a50.09,50.09,0,0,0-8,2l-7.82,2.66a22,22,0,0,1-3.28,1,22.25,22.25,0,0,1,3.16-1.32c2-.75,4.71-1.8,7.78-2.82a40,40,0,0,1,8.08-1.89,20.32,20.32,0,0,1,2.51-.15A2.78,2.78,0,0,1,354.74,299.76Z" style="fill:#bc8579"></path><path d="M350.69,295.57a2.52,2.52,0,0,1-1.78.8c-1.21.23-2.9-.16-4.58.21-.83.2-1.56.7-2.35.95a4.2,4.2,0,0,1-2.16.05,3.44,3.44,0,0,0-1.34,0c-.3.07-.45.18-.48.15s.09-.19.42-.35a3.14,3.14,0,0,1,1.45-.13,4,4,0,0,0,2-.14,21.55,21.55,0,0,1,2.37-1,8.47,8.47,0,0,1,2.62-.13,14.71,14.71,0,0,0,2.05.05A7.3,7.3,0,0,0,350.69,295.57Z" style="fill:#bc8579"></path><path d="M364.69,300.31c-.12.09-1.43-1.65-3.55-3.25a3.66,3.66,0,0,1-1.3-1.5c-.24-.57-.34-1.08-.49-1.48a3.32,3.32,0,0,0-.72-1.14s.16,0,.38.14a2,2,0,0,1,.68.86c.2.41.35.92.59,1.42a3.47,3.47,0,0,0,1.18,1.29A9.82,9.82,0,0,1,364.69,300.31Z" style="fill:#bc8579"></path></g></svg>