<svg xmlns="http://www.w3.org/2000/svg" viewBox="0 0 100 100" preserveAspectRatio="xMidYMid" width="200" height="200" style="shape-rendering: auto; display: block; background: transparent;" xmlns:xlink="http://www.w3.org/1999/xlink"><g><g transform="rotate(0 50 50)">
  <rect fill="#fa6400" height="14" width="14" ry="7" rx="7" y="23" x="43">
    <animate repeatCount="indefinite" begin="-0.9s" dur="1s" keyTimes="0;1" values="1;0" attributeName="opacity"></animate>
  </rect>
</g><g transform="rotate(36 50 50)">
  <rect fill="#fa6400" height="14" width="14" ry="7" rx="7" y="23" x="43">
    <animate repeatCount="indefinite" begin="-0.8s" dur="1s" keyTimes="0;1" values="1;0" attributeName="opacity"></animate>
  </rect>
</g><g transform="rotate(72 50 50)">
  <rect fill="#fa6400" height="14" width="14" ry="7" rx="7" y="23" x="43">
    <animate repeatCount="indefinite" begin="-0.7s" dur="1s" keyTimes="0;1" values="1;0" attributeName="opacity"></animate>
  </rect>
</g><g transform="rotate(108 50 50)">
  <rect fill="#fa6400" height="14" width="14" ry="7" rx="7" y="23" x="43">
    <animate repeatCount="indefinite" begin="-0.6s" dur="1s" keyTimes="0;1" values="1;0" attributeName="opacity"></animate>
  </rect>
</g><g transform="rotate(144 50 50)">
  <rect fill="#fa6400" height="14" width="14" ry="7" rx="7" y="23" x="43">
    <animate repeatCount="indefinite" begin="-0.5s" dur="1s" keyTimes="0;1" values="1;0" attributeName="opacity"></animate>
  </rect>
</g><g transform="rotate(180 50 50)">
  <rect fill="#fa6400" height="14" width="14" ry="7" rx="7" y="23" x="43">
    <animate repeatCount="indefinite" begin="-0.4s" dur="1s" keyTimes="0;1" values="1;0" attributeName="opacity"></animate>
  </rect>
</g><g transform="rotate(216 50 50)">
  <rect fill="#fa6400" height="14" width="14" ry="7" rx="7" y="23" x="43">
    <animate repeatCount="indefinite" begin="-0.3s" dur="1s" keyTimes="0;1" values="1;0" attributeName="opacity"></animate>
  </rect>
</g><g transform="rotate(252 50 50)">
  <rect fill="#fa6400" height="14" width="14" ry="7" rx="7" y="23" x="43">
    <animate repeatCount="indefinite" begin="-0.2s" dur="1s" keyTimes="0;1" values="1;0" attributeName="opacity"></animate>
  </rect>
</g><g transform="rotate(288 50 50)">
  <rect fill="#fa6400" height="14" width="14" ry="7" rx="7" y="23" x="43">
    <animate repeatCount="indefinite" begin="-0.1s" dur="1s" keyTimes="0;1" values="1;0" attributeName="opacity"></animate>
  </rect>
</g><g transform="rotate(324 50 50)">
  <rect fill="#fa6400" height="14" width="14" ry="7" rx="7" y="23" x="43">
    <animate repeatCount="indefinite" begin="0s" dur="1s" keyTimes="0;1" values="1;0" attributeName="opacity"></animate>
  </rect>
</g><g></g></g><!-- [ldio] generated by https://loading.io --></svg>